<svg width="88" height="16" viewBox="0 0 88 16" fill="none" xmlns="http://www.w3.org/2000/svg">
<g clip-path="url(#clip0_2526_3061)">
<g clip-path="url(#clip1_2526_3061)">
<path d="M7.53834 1.50999C7.70914 1.09934 8.29086 1.09934 8.46166 1.50999L9.99874 5.20558C10.0707 5.3787 10.2336 5.49698 10.4204 5.51197L14.4102 5.83182C14.8535 5.86736 15.0332 6.42062 14.6955 6.70995L11.6557 9.31381C11.5133 9.43578 11.4512 9.62717 11.4947 9.80955L12.4234 13.7028C12.5265 14.1354 12.0559 14.4774 11.6764 14.2455L8.26063 12.1592C8.10062 12.0615 7.89938 12.0615 7.73937 12.1592L4.32363 14.2455C3.94408 14.4774 3.47345 14.1354 3.57665 13.7028L4.50534 9.80955C4.54884 9.62717 4.48665 9.43578 4.34426 9.31381L1.30453 6.70995C0.966758 6.42062 1.14652 5.86736 1.58985 5.83182L5.57955 5.51197C5.76645 5.49698 5.92925 5.3787 6.00126 5.20558L7.53834 1.50999Z" fill="#F5AF00"/>
</g>
<g clip-path="url(#clip2_2526_3061)">
<path d="M25.5383 1.50999C25.7091 1.09934 26.2909 1.09934 26.4617 1.50999L27.9987 5.20558C28.0707 5.3787 28.2336 5.49698 28.4204 5.51197L32.4102 5.83182C32.8535 5.86736 33.0332 6.42062 32.6955 6.70995L29.6557 9.31381C29.5133 9.43578 29.4512 9.62717 29.4947 9.80955L30.4234 13.7028C30.5265 14.1354 30.0559 14.4774 29.6764 14.2455L26.2606 12.1592C26.1006 12.0615 25.8994 12.0615 25.7394 12.1592L22.3236 14.2455C21.9441 14.4774 21.4735 14.1354 21.5766 13.7028L22.5053 9.80955C22.5488 9.62717 22.4867 9.43578 22.3443 9.31381L19.3045 6.70995C18.9668 6.42062 19.1465 5.86736 19.5898 5.83182L23.5796 5.51197C23.7664 5.49698 23.9293 5.3787 24.0013 5.20558L25.5383 1.50999Z" fill="#F5AF00"/>
</g>
<g clip-path="url(#clip3_2526_3061)">
<path d="M43.5383 1.50999C43.7091 1.09934 44.2909 1.09934 44.4617 1.50999L45.9987 5.20558C46.0707 5.3787 46.2336 5.49698 46.4204 5.51197L50.4102 5.83182C50.8535 5.86736 51.0332 6.42062 50.6955 6.70995L47.6557 9.31381C47.5133 9.43578 47.4512 9.62717 47.4947 9.80955L48.4234 13.7028C48.5265 14.1354 48.0559 14.4774 47.6764 14.2455L44.2606 12.1592C44.1006 12.0615 43.8994 12.0615 43.7394 12.1592L40.3236 14.2455C39.9441 14.4774 39.4735 14.1354 39.5766 13.7028L40.5053 9.80955C40.5488 9.62717 40.4867 9.43578 40.3443 9.31381L37.3045 6.70995C36.9668 6.42062 37.1465 5.86736 37.5898 5.83182L41.5796 5.51197C41.7664 5.49698 41.9293 5.3787 42.0013 5.20558L43.5383 1.50999Z" fill="#F5AF00"/>
</g>
<g clip-path="url(#clip4_2526_3061)">
<path d="M61.5383 1.50999C61.7091 1.09934 62.2909 1.09934 62.4617 1.50999L63.9987 5.20558C64.0707 5.3787 64.2336 5.49698 64.4204 5.51197L68.4102 5.83182C68.8535 5.86736 69.0332 6.42062 68.6955 6.70995L65.6557 9.31381C65.5133 9.43578 65.4512 9.62717 65.4947 9.80955L66.4234 13.7028C66.5265 14.1354 66.0559 14.4774 65.6764 14.2455L62.2606 12.1592C62.1006 12.0615 61.8994 12.0615 61.7394 12.1592L58.3236 14.2455C57.9441 14.4774 57.4735 14.1354 57.5766 13.7028L58.5053 9.80955C58.5488 9.62717 58.4867 9.43578 58.3443 9.31381L55.3045 6.70995C54.9668 6.42062 55.1465 5.86736 55.5898 5.83182L59.5796 5.51197C59.7664 5.49698 59.9293 5.3787 60.0013 5.20558L61.5383 1.50999Z" fill="#F5AF00"/>
</g>
<g clip-path="url(#clip5_2526_3061)">
<path d="M79.5383 1.50999C79.7091 1.09934 80.2909 1.09934 80.4617 1.50999L81.9987 5.20558C82.0707 5.3787 82.2336 5.49698 82.4204 5.51197L86.4102 5.83182C86.8535 5.86736 87.0332 6.42062 86.6955 6.70995L83.6557 9.31381C83.5133 9.43578 83.4512 9.62717 83.4947 9.80955L84.4234 13.7028C84.5265 14.1354 84.0559 14.4774 83.6764 14.2455L80.2606 12.1592C80.1006 12.0615 79.8994 12.0615 79.7394 12.1592L76.3236 14.2455C75.9441 14.4774 75.4735 14.1354 75.5766 13.7028L76.5053 9.80955C76.5488 9.62717 76.4867 9.43578 76.3443 9.31381L73.3045 6.70995C72.9668 6.42062 73.1465 5.86736 73.5898 5.83182L77.5796 5.51197C77.7664 5.49698 77.9293 5.3787 78.0013 5.20558L79.5383 1.50999Z" fill="#F5AF00"/>
</g>
</g>
<defs>
<clipPath id="clip0_2526_3061">
<rect width="88" height="16" fill="white"/>
</clipPath>
<clipPath id="clip1_2526_3061">
<rect width="16" height="16" fill="white"/>
</clipPath>
<clipPath id="clip2_2526_3061">
<rect width="16" height="16" fill="white" transform="translate(18)"/>
</clipPath>
<clipPath id="clip3_2526_3061">
<rect width="16" height="16" fill="white" transform="translate(36)"/>
</clipPath>
<clipPath id="clip4_2526_3061">
<rect width="16" height="16" fill="white" transform="translate(54)"/>
</clipPath>
<clipPath id="clip5_2526_3061">
<rect width="16" height="16" fill="white" transform="translate(72)"/>
</clipPath>
</defs>
</svg>
