<svg width="9" height="6" viewBox="0 0 9 6" fill="none" xmlns="http://www.w3.org/2000/svg">
<path d="M0.450271 4.76837e-07H8.5505C8.63251 0.000229359 8.7129 0.0203705 8.78301 0.0582557C8.85312 0.0961409 8.91031 0.150334 8.9484 0.215005C8.9865 0.279675 9.00406 0.352373 8.99921 0.425272C8.99436 0.498171 8.96727 0.568511 8.92086 0.628722L4.87075 5.83801C4.70289 6.054 4.29878 6.054 4.13048 5.83801L0.0803604 0.628722C0.0334803 0.568637 0.00598872 0.498261 0.000872541 0.425241C-0.00424364 0.352221 0.0132113 0.279347 0.0513409 0.21454C0.0894705 0.149733 0.146816 0.095469 0.217148 0.0576458C0.28748 0.0198221 0.368108 -0.000114441 0.450271 4.76837e-07Z" fill="#0D3B66"/>
</svg>
