<svg width="11" height="8" viewBox="0 0 11 8" fill="none" xmlns="http://www.w3.org/2000/svg">
<path fill-rule="evenodd" clip-rule="evenodd" d="M9.98402 0.24645C10.1252 0.404119 10.2046 0.617937 10.2046 0.840882C10.2046 1.06383 10.1252 1.27764 9.98402 1.43531L4.33819 7.73725C4.26358 7.82055 4.175 7.88663 4.07751 7.93171C3.98001 7.9768 3.87552 8 3.76999 8C3.66446 8 3.55997 7.9768 3.46248 7.93171C3.36499 7.88663 3.2764 7.82055 3.20179 7.73725L0.396705 4.60674C0.324763 4.52918 0.267379 4.43641 0.227902 4.33383C0.188425 4.23125 0.167646 4.12092 0.166776 4.00928C0.165907 3.89764 0.184966 3.78693 0.22284 3.6836C0.260714 3.58027 0.316644 3.4864 0.387369 3.40746C0.458093 3.32851 0.542194 3.26608 0.634766 3.22381C0.727337 3.18153 0.826524 3.16026 0.926539 3.16123C1.02655 3.1622 1.1254 3.18539 1.21729 3.22946C1.30919 3.27352 1.39231 3.33757 1.4618 3.41788L3.76974 5.99403L8.91843 0.24645C8.98838 0.168319 9.07144 0.106339 9.16286 0.0640522C9.25428 0.0217653 9.35227 0 9.45123 0C9.55018 0 9.64817 0.0217653 9.73959 0.0640522C9.83101 0.106339 9.91407 0.168319 9.98402 0.24645Z" fill="#0197F6"/>
</svg>
