<svg width="20" height="21" viewBox="0 0 20 21" fill="none" xmlns="http://www.w3.org/2000/svg">
<circle cx="10" cy="10.5" r="10" fill="#E7EBF0"/>
<path fill-rule="evenodd" clip-rule="evenodd" d="M14.484 6.74645C14.6252 6.90412 14.7046 7.11794 14.7046 7.34088C14.7046 7.56383 14.6252 7.77764 14.484 7.93531L8.83819 14.2373C8.76358 14.3206 8.675 14.3866 8.57751 14.4317C8.48001 14.4768 8.37552 14.5 8.26999 14.5C8.16446 14.5 8.05997 14.4768 7.96248 14.4317C7.86499 14.3866 7.7764 14.3206 7.70179 14.2373L4.89671 11.1067C4.82476 11.0292 4.76738 10.9364 4.7279 10.8338C4.68842 10.7312 4.66765 10.6209 4.66678 10.5093C4.66591 10.3976 4.68497 10.2869 4.72284 10.1836C4.76071 10.0803 4.81664 9.9864 4.88737 9.90746C4.95809 9.82851 5.04219 9.76608 5.13477 9.72381C5.22734 9.68153 5.32652 9.66026 5.42654 9.66123C5.52655 9.6622 5.6254 9.68539 5.71729 9.72946C5.80919 9.77352 5.89231 9.83757 5.9618 9.91788L8.26974 12.494L13.4184 6.74645C13.4884 6.66832 13.5714 6.60634 13.6629 6.56405C13.7543 6.52177 13.8523 6.5 13.9512 6.5C14.0502 6.5 14.1482 6.52177 14.2396 6.56405C14.331 6.60634 14.4141 6.66832 14.484 6.74645Z" fill="#0197F6"/>
</svg>
