<svg width="16" height="16" viewBox="0 0 16 16" fill="none" xmlns="http://www.w3.org/2000/svg">
<g id="close">
<path id="Line 8 (Stroke)" fill-rule="evenodd" clip-rule="evenodd" d="M7.99967 0.5C8.45991 0.5 8.83301 0.895043 8.83301 1.38235L8.83301 14.6176C8.83301 15.105 8.45991 15.5 7.99967 15.5C7.53944 15.5 7.16634 15.105 7.16634 14.6176L7.16634 1.38235C7.16634 0.895043 7.53944 0.5 7.99967 0.5Z" fill="#0C355C"/>
<path id="Line 9 (Stroke)" fill-rule="evenodd" clip-rule="evenodd" d="M0.5 7.99996C0.5 7.53972 0.895043 7.16663 1.38235 7.16663L14.6176 7.16663C15.105 7.16663 15.5 7.53972 15.5 7.99996C15.5 8.4602 15.105 8.83329 14.6176 8.83329L1.38235 8.83329C0.895043 8.83329 0.5 8.4602 0.5 7.99996Z" fill="#0C355C"/>
</g>
</svg>
