<svg width="231" height="45" viewBox="0 0 231 45" fill="none" xmlns="http://www.w3.org/2000/svg">
<g id="DebtClearUSA-Americor-Logo">
<g id="Group 13">
<g id="Group">
<g id="Group_2">
<path id="Vector" d="M32.937 13.9597C32.0868 16.1724 30.5608 18.0364 28.6096 19.3226C29.111 20.2818 29.3944 21.3609 29.3944 22.5055C29.3944 23.65 29.111 24.74 28.6096 25.6883C30.5608 26.9637 32.0868 28.8385 32.937 31.0513C34.8446 28.7186 36 25.7428 36 22.5055C36 19.2681 34.8555 16.2923 32.937 13.9597Z" fill="#F16E00"/>
<path id="Vector_2" d="M17.5564 17.7093C18.8099 16.4122 20.5649 15.6056 22.5051 15.6056C24.4454 15.6056 26.2003 16.4122 27.4539 17.7093C29.3505 16.4885 30.7784 14.5918 31.3779 12.3573C29.0017 10.2753 25.8951 9 22.5051 9C19.1152 9 15.9977 10.2753 13.6323 12.3573C14.2427 14.5918 15.6598 16.4885 17.5564 17.7093Z" fill="#F16E00"/>
<path id="Vector_3" d="M27.4539 27.3016C26.2003 28.5988 24.4454 29.4054 22.5051 29.4054C20.5649 29.4054 18.8099 28.5988 17.5564 27.3016C15.6598 28.5225 14.2318 30.4191 13.6323 32.6428C16.0086 34.7247 19.1152 36 22.5051 36C25.8951 36 29.0126 34.7247 31.3779 32.6428C30.7675 30.4082 29.3505 28.5116 27.4539 27.3016Z" fill="#F16E00"/>
<path id="Vector_4" d="M16.3904 25.6883C15.889 24.7291 15.6056 23.65 15.6056 22.5055C15.6056 21.3609 15.889 20.2709 16.3904 19.3226C14.4392 18.0473 12.9132 16.1724 12.063 13.9597C10.1554 16.2923 9 19.2681 9 22.5055C9 25.7428 10.1445 28.7186 12.063 31.0513C12.9132 28.8385 14.4392 26.9746 16.3904 25.6883Z" fill="#F16E00"/>
</g>
<path id="Vector_5" d="M22.5 45C18.825 45 15.375 43.5625 12.775 40.975L4.025 32.225C1.425 29.625 0 26.175 0 22.5C0 18.825 1.4375 15.375 4.025 12.775L12.775 4.025C15.375 1.425 18.825 0 22.5 0C26.175 0 29.625 1.4375 32.225 4.025L40.975 12.775C43.575 15.375 45 18.825 45 22.5C45 26.175 43.5625 29.625 40.975 32.225L32.225 40.975C29.625 43.575 26.175 45 22.5 45ZM22.5 2.575C19.5125 2.575 16.7125 3.7375 14.6 5.85L5.85 14.6C3.7375 16.7125 2.575 19.5125 2.575 22.5C2.575 25.4875 3.7375 28.2875 5.85 30.4L14.6 39.15C16.7125 41.2625 19.5125 42.425 22.5 42.425C25.4875 42.425 28.2875 41.2625 30.4 39.15L39.15 30.4C41.2625 28.2875 42.425 25.4875 42.425 22.5C42.425 19.5125 41.2625 16.7125 39.15 14.6L30.4 5.85C28.2875 3.7375 25.4875 2.575 22.5 2.575Z" fill="#0C355C"/>
</g>
<g id="Group 7">
<g id="Group_3">
<path id="Vector_6" d="M54.0252 22.5998V3.98734H60.7752C66.3627 3.98734 70.1127 7.56234 70.1127 13.2998C70.1127 19.0373 66.3627 22.5873 60.7377 22.5873H54.0127L54.0252 22.5998ZM60.5877 18.6873C63.4502 18.6873 65.7877 17.0373 65.7877 13.3123C65.7877 9.58733 63.4502 7.89983 60.5877 7.89983H58.1752V18.6873H60.5877Z" fill="#0C355C"/>
<path id="Vector_7" d="M84.812 18.8498C84.187 21.1123 82.112 22.9998 78.7995 22.9998C75.1995 22.9998 71.9995 20.4248 71.9995 16.0498C71.9995 11.6748 75.1245 9.1748 78.512 9.1748C82.5495 9.1748 85.0495 11.6623 85.0495 15.8623C85.0495 16.4123 84.9995 17.0123 84.9745 17.0998H75.8995C75.9745 18.5748 77.312 19.6248 78.862 19.6248C80.2995 19.6248 81.112 18.9373 81.487 17.9123L84.8245 18.8623L84.812 18.8498ZM81.187 14.5123C81.137 13.5123 80.4495 12.3123 78.562 12.3123C76.887 12.3123 76.037 13.5498 75.962 14.5123H81.187Z" fill="#0C355C"/>
<path id="Vector_8" d="M87.6125 22.5998V3.59979H91.525V10.7873C92.075 9.97479 93.525 9.23729 95.3 9.23729C99.075 9.23729 101.362 12.1248 101.362 16.0373C101.362 19.9498 98.7875 22.8873 95.1375 22.8873C93.4 22.8873 92.0625 22.1248 91.4625 21.1248V22.5998H87.6H87.6125ZM94.4375 12.8373C92.8875 12.8373 91.475 13.8623 91.475 16.0623C91.475 18.2623 92.8875 19.3123 94.4375 19.3123C95.9875 19.3123 97.375 18.2373 97.375 16.0623C97.375 13.8873 95.9875 12.8373 94.4375 12.8373Z" fill="#0C355C"/>
<path id="Vector_9" d="M108.701 9.56236H111.251V13.0499H108.701V17.9374C108.701 19.0124 109.276 19.2999 110.138 19.2999C110.563 19.2999 110.951 19.2249 111.188 19.1624V22.4749C111.026 22.5499 110.376 22.8374 109.113 22.8374C106.413 22.8374 104.751 21.2374 104.751 18.6374V13.0499H102.438V9.56236H103.101C104.463 9.56236 105.126 8.64986 105.126 7.43736V5.76236H108.701V9.56236Z" fill="#0C355C"/>
<path id="Vector_10" d="M113.138 13.3373C113.138 7.53729 117.55 3.59979 122.75 3.59979C128.338 3.59979 130.813 7.19979 131.413 9.87479L127.5 11.1123C127.213 9.82479 126.025 7.64979 122.75 7.64979C120.25 7.64979 117.45 9.43729 117.45 13.3498C117.45 16.8373 120.025 18.8623 122.8 18.8623C126.025 18.8623 127.313 16.7123 127.688 15.3748L131.65 16.4998C131.05 19.0748 128.575 23.0123 122.8 23.0123C117.45 23.0123 113.138 19.1498 113.138 13.3498V13.3373Z" fill="#0C355C"/>
<path id="Vector_11" d="M133.951 22.5998V3.59979H137.938V22.5998H133.951Z" fill="#0C355C"/>
<path id="Vector_12" d="M153.326 18.8498C152.701 21.1123 150.626 22.9998 147.313 22.9998C143.713 22.9998 140.513 20.4248 140.513 16.0498C140.513 11.6748 143.638 9.1748 147.026 9.1748C151.063 9.1748 153.563 11.6623 153.563 15.8623C153.563 16.4123 153.513 17.0123 153.488 17.0998H144.413C144.488 18.5748 145.826 19.6248 147.376 19.6248C148.826 19.6248 149.638 18.9373 150.001 17.9123L153.338 18.8623L153.326 18.8498ZM149.701 14.5123C149.651 13.5123 148.963 12.3123 147.076 12.3123C145.401 12.3123 144.551 13.5498 144.476 14.5123H149.701Z" fill="#0C355C"/>
<path id="Vector_13" d="M159.2 15.0748L162.275 14.5998C162.988 14.4998 163.225 14.1498 163.225 13.7123C163.225 12.9498 162.575 12.2998 161.313 12.2998C159.925 12.2998 159.163 13.2498 159.088 14.2123L155.625 13.4998C155.775 11.6373 157.513 9.1748 161.35 9.1748C165.575 9.1748 167.125 11.5373 167.125 14.2123V20.5873C167.125 21.6123 167.263 22.4748 167.288 22.6123H163.688C163.663 22.5123 163.55 22.0373 163.55 21.1373C162.875 22.2373 161.613 22.9748 159.875 22.9748C157.013 22.9748 155.363 21.0873 155.363 19.0123C155.363 16.6998 157.075 15.3873 159.225 15.0748H159.2ZM163.213 17.4873V16.9123L160.75 17.3123C159.913 17.4373 159.275 17.8373 159.275 18.7498C159.275 19.4373 159.725 20.0873 160.825 20.0873C162.013 20.0873 163.213 19.5123 163.213 17.4873Z" fill="#0C355C"/>
<path id="Vector_14" d="M178.762 13.4999C178.312 13.3999 177.9 13.3749 177.5 13.3749C175.9 13.3749 174.45 14.3249 174.45 16.9124V22.6124H170.462V9.56244H174.325V11.3249C175.012 9.84994 176.662 9.43744 177.712 9.43744C178.112 9.43744 178.5 9.48744 178.762 9.56244V13.4999Z" fill="#0C355C"/>
<path id="Vector_15" d="M181.388 16.2498V3.98734H183.938V16.1623C183.938 18.9998 185.488 20.5998 188.088 20.5998C190.688 20.5998 192.213 18.9998 192.213 16.1623V3.98734H194.788V16.2498C194.788 20.6373 191.876 22.9998 188.101 22.9998C184.326 22.9998 181.413 20.6373 181.413 16.2498H181.388Z" fill="#0C355C"/>
<path id="Vector_16" d="M208.788 9.0374C208.575 7.6999 207.45 5.8624 204.85 5.8624C202.75 5.8624 201.25 7.2249 201.25 8.9624C201.25 10.2999 202.062 11.3249 203.637 11.6624L206.425 12.2624C209.525 12.9499 211.25 14.8874 211.25 17.4874C211.25 20.3749 208.787 22.9999 204.825 22.9999C200.337 22.9999 198.212 20.1124 197.875 17.4624L200.338 16.6749C200.525 18.7499 201.988 20.6624 204.8 20.6624C207.375 20.6624 208.637 19.3249 208.637 17.6999C208.637 16.3624 207.713 15.2124 205.85 14.8124L203.2 14.2374C200.55 13.6624 198.663 11.9249 198.663 9.1499C198.663 6.3749 201.363 3.6124 204.8 3.6124C209 3.6124 210.675 6.2124 211.1 8.2374L208.788 9.0499V9.0374Z" fill="#0C355C"/>
<path id="Vector_17" d="M225.537 17.3998H217.3L215.325 22.5998H212.575L219.975 3.98734H222.937L230.337 22.5998H227.562L225.537 17.3998ZM218.212 15.0123H224.612L221.387 6.66234L218.212 15.0123Z" fill="#0C355C"/>
</g>
<g id="Powered by Americor">
<g id="Group 14">
<path id="Vector_18" d="M189.871 39.708L188.557 37.323H188.188V39.708H186.649V33.39H189.232C189.73 33.39 190.153 33.477 190.501 33.651C190.855 33.825 191.119 34.065 191.293 34.371C191.467 34.671 191.554 35.007 191.554 35.379C191.554 35.799 191.434 36.174 191.194 36.504C190.96 36.834 190.612 37.068 190.15 37.206L191.608 39.708H189.871ZM188.188 36.234H189.142C189.424 36.234 189.634 36.165 189.772 36.027C189.916 35.889 189.988 35.694 189.988 35.442C189.988 35.202 189.916 35.013 189.772 34.875C189.634 34.737 189.424 34.668 189.142 34.668H188.188V36.234Z" fill="#0C355C"/>
<path id="Vector_19" d="M181.662 39.771C181.068 39.771 180.522 39.633 180.024 39.357C179.532 39.081 179.139 38.697 178.845 38.205C178.557 37.707 178.413 37.149 178.413 36.531C178.413 35.913 178.557 35.358 178.845 34.866C179.139 34.374 179.532 33.99 180.024 33.714C180.522 33.438 181.068 33.3 181.662 33.3C182.256 33.3 182.799 33.438 183.291 33.714C183.789 33.99 184.179 34.374 184.461 34.866C184.749 35.358 184.893 35.913 184.893 36.531C184.893 37.149 184.749 37.707 184.461 38.205C184.173 38.697 183.783 39.081 183.291 39.357C182.799 39.633 182.256 39.771 181.662 39.771ZM181.662 38.367C182.166 38.367 182.568 38.199 182.868 37.863C183.174 37.527 183.327 37.083 183.327 36.531C183.327 35.973 183.174 35.529 182.868 35.199C182.568 34.863 182.166 34.695 181.662 34.695C181.152 34.695 180.744 34.86 180.438 35.19C180.138 35.52 179.988 35.967 179.988 36.531C179.988 37.089 180.138 37.536 180.438 37.872C180.744 38.202 181.152 38.367 181.662 38.367Z" fill="#0C355C"/>
<path id="Vector_20" d="M170.658 36.5399C170.658 35.9159 170.793 35.3609 171.063 34.8749C171.333 34.3829 171.708 34.0019 172.188 33.7319C172.674 33.4559 173.223 33.3179 173.835 33.3179C174.585 33.3179 175.227 33.5159 175.761 33.9119C176.295 34.3079 176.652 34.8479 176.832 35.5319H175.14C175.014 35.2679 174.834 35.0669 174.6 34.9289C174.372 34.7909 174.111 34.7219 173.817 34.7219C173.343 34.7219 172.959 34.8869 172.665 35.2169C172.371 35.5469 172.224 35.9879 172.224 36.5399C172.224 37.0919 172.371 37.5329 172.665 37.8629C172.959 38.1929 173.343 38.3579 173.817 38.3579C174.111 38.3579 174.372 38.2889 174.6 38.1509C174.834 38.0129 175.014 37.8119 175.14 37.5479H176.832C176.652 38.2319 176.295 38.7719 175.761 39.1679C175.227 39.5579 174.585 39.7529 173.835 39.7529C173.223 39.7529 172.674 39.6179 172.188 39.3479C171.708 39.0719 171.333 38.6909 171.063 38.2049C170.793 37.7189 170.658 37.1639 170.658 36.5399Z" fill="#0C355C"/>
<path id="Vector_21" d="M168.903 33.39V39.708H167.364V33.39H168.903Z" fill="#0C355C"/>
<path id="Vector_22" d="M163.816 39.708L162.502 37.323H162.133V39.708H160.594V33.39H163.177C163.675 33.39 164.098 33.477 164.446 33.651C164.8 33.825 165.064 34.065 165.238 34.371C165.412 34.671 165.499 35.007 165.499 35.379C165.499 35.799 165.379 36.174 165.139 36.504C164.905 36.834 164.557 37.068 164.095 37.206L165.553 39.708H163.816ZM162.133 36.234H163.087C163.369 36.234 163.579 36.165 163.717 36.027C163.861 35.889 163.933 35.694 163.933 35.442C163.933 35.202 163.861 35.013 163.717 34.875C163.579 34.737 163.369 34.668 163.087 34.668H162.133V36.234Z" fill="#0C355C"/>
<path id="Vector_23" d="M156.363 34.623V35.901H158.424V37.089H156.363V38.475H158.694V39.708H154.824V33.39H158.694V34.623H156.363Z" fill="#0C355C"/>
<path id="Vector_24" d="M152.818 33.39V39.708H151.279V35.919L149.866 39.708H148.624L147.202 35.91V39.708H145.663V33.39H147.481L149.254 37.764L151.009 33.39H152.818Z" fill="#0C355C"/>
<path id="Vector_25" d="M142.06 38.5918H139.702L139.324 39.7078H137.713L139.999 33.3898H141.781L144.067 39.7078H142.438L142.06 38.5918ZM141.664 37.4038L140.881 35.0908L140.107 37.4038H141.664Z" fill="#0C355C"/>
</g>
<path id="Vector_26" d="M120.234 32.8945L118.047 37.1245V39.2125H116.508V37.1245L114.321 32.8945H116.067L117.291 35.5405L118.506 32.8945H120.234Z" fill="#0C355C"/>
<path id="Vector_27" d="M111.809 35.9725C112.175 36.0505 112.469 36.2335 112.691 36.5215C112.913 36.8035 113.024 37.1275 113.024 37.4935C113.024 38.0215 112.838 38.4415 112.466 38.7535C112.1 39.0595 111.587 39.2125 110.927 39.2125H107.984V32.8945H110.828C111.47 32.8945 111.971 33.0415 112.331 33.3355C112.697 33.6295 112.88 34.0285 112.88 34.5325C112.88 34.9045 112.781 35.2135 112.583 35.4595C112.391 35.7055 112.133 35.8765 111.809 35.9725ZM109.523 35.4505H110.531C110.783 35.4505 110.975 35.3965 111.107 35.2885C111.245 35.1745 111.314 35.0095 111.314 34.7935C111.314 34.5775 111.245 34.4125 111.107 34.2985C110.975 34.1845 110.783 34.1275 110.531 34.1275H109.523V35.4505ZM110.657 37.9705C110.915 37.9705 111.113 37.9135 111.251 37.7995C111.395 37.6795 111.467 37.5085 111.467 37.2865C111.467 37.0645 111.392 36.8905 111.242 36.7645C111.098 36.6385 110.897 36.5755 110.639 36.5755H109.523V37.9705H110.657Z" fill="#0C355C"/>
<path id="Vector_28" d="M100.104 32.8945C100.77 32.8945 101.352 33.0265 101.85 33.2905C102.348 33.5545 102.732 33.9265 103.002 34.4065C103.278 34.8805 103.416 35.4295 103.416 36.0535C103.416 36.6715 103.278 37.2205 103.002 37.7005C102.732 38.1805 102.345 38.5525 101.841 38.8165C101.343 39.0805 100.764 39.2125 100.104 39.2125H97.7373V32.8945H100.104ZM100.005 37.8805C100.587 37.8805 101.04 37.7215 101.364 37.4035C101.688 37.0855 101.85 36.6355 101.85 36.0535C101.85 35.4715 101.688 35.0185 101.364 34.6945C101.04 34.3705 100.587 34.2085 100.005 34.2085H99.2763V37.8805H100.005Z" fill="#0C355C"/>
<path id="Vector_29" d="M93.5074 34.1275V35.4055H95.5684V36.5935H93.5074V37.9795H95.8384V39.2125H91.9684V32.8945H95.8384V34.1275H93.5074Z" fill="#0C355C"/>
<path id="Vector_30" d="M88.4191 39.2125L87.1051 36.8275H86.7361V39.2125H85.1971V32.8945H87.7801C88.2781 32.8945 88.7011 32.9815 89.0491 33.1555C89.4031 33.3295 89.6671 33.5695 89.8411 33.8755C90.0151 34.1755 90.1021 34.5115 90.1021 34.8835C90.1021 35.3035 89.9821 35.6785 89.7421 36.0085C89.5081 36.3385 89.1601 36.5725 88.6981 36.7105L90.1561 39.2125H88.4191ZM86.7361 35.7385H87.6901C87.9721 35.7385 88.1821 35.6695 88.3201 35.5315C88.4641 35.3935 88.5361 35.1985 88.5361 34.9465C88.5361 34.7065 88.4641 34.5175 88.3201 34.3795C88.1821 34.2415 87.9721 34.1725 87.6901 34.1725H86.7361V35.7385Z" fill="#0C355C"/>
<path id="Vector_31" d="M80.967 34.1275V35.4055H83.028V36.5935H80.967V37.9795H83.298V39.2125H79.428V32.8945H83.298V34.1275H80.967Z" fill="#0C355C"/>
<path id="Vector_32" d="M77.7562 32.8945L76.1092 39.2125H74.2462L73.2382 35.0545L72.1942 39.2125H70.3312L68.7292 32.8945H70.3762L71.2852 37.4935L72.4102 32.8945H74.1022L75.1822 37.4935L76.1002 32.8945H77.7562Z" fill="#0C355C"/>
<path id="Vector_33" d="M64.0749 39.2756C63.4809 39.2756 62.9349 39.1376 62.4369 38.8616C61.9449 38.5856 61.5519 38.2016 61.2579 37.7096C60.9699 37.2116 60.8259 36.6536 60.8259 36.0356C60.8259 35.4176 60.9699 34.8626 61.2579 34.3706C61.5519 33.8786 61.9449 33.4946 62.4369 33.2186C62.9349 32.9426 63.4809 32.8046 64.0749 32.8046C64.6689 32.8046 65.2119 32.9426 65.7039 33.2186C66.2019 33.4946 66.5919 33.8786 66.8739 34.3706C67.1619 34.8626 67.3059 35.4176 67.3059 36.0356C67.3059 36.6536 67.1619 37.2116 66.8739 37.7096C66.5859 38.2016 66.1959 38.5856 65.7039 38.8616C65.2119 39.1376 64.6689 39.2756 64.0749 39.2756ZM64.0749 37.8716C64.5789 37.8716 64.9809 37.7036 65.2809 37.3676C65.5869 37.0316 65.7399 36.5876 65.7399 36.0356C65.7399 35.4776 65.5869 35.0336 65.2809 34.7036C64.9809 34.3676 64.5789 34.1996 64.0749 34.1996C63.5649 34.1996 63.1569 34.3646 62.8509 34.6946C62.5509 35.0246 62.4009 35.4716 62.4009 36.0356C62.4009 36.5936 62.5509 37.0406 62.8509 37.3766C63.1569 37.7066 63.5649 37.8716 64.0749 37.8716Z" fill="#0C355C"/>
<path id="Vector_34" d="M59.3859 34.9285C59.3859 35.2945 59.3019 35.6305 59.1339 35.9365C58.9659 36.2365 58.7079 36.4795 58.3599 36.6655C58.0119 36.8515 57.5799 36.9445 57.0639 36.9445H56.1099V39.2125H54.5709V32.8945H57.0639C57.5679 32.8945 57.9939 32.9815 58.3419 33.1555C58.6899 33.3295 58.9509 33.5695 59.1249 33.8755C59.2989 34.1815 59.3859 34.5325 59.3859 34.9285ZM56.9469 35.7205C57.2409 35.7205 57.4599 35.6515 57.6039 35.5135C57.7479 35.3755 57.8199 35.1805 57.8199 34.9285C57.8199 34.6765 57.7479 34.4815 57.6039 34.3435C57.4599 34.2055 57.2409 34.1365 56.9469 34.1365H56.1099V35.7205H56.9469Z" fill="#0C355C"/>
<g id="Group 20">
<path id="Vector_35" d="M131.379 39.6001L135.278 31.2033L134.762 31.1415L137.491 28.8001L138.07 32.4536L137.562 32.0667L134.065 39.6001H131.379Z" fill="url(#paint0_linear_2516_2140)"/>
<path id="Vector_36" d="M126.943 39.6001L130.919 31.0348L131.837 29.0554L133.205 31.8943L129.628 39.6001H126.943Z" fill="url(#paint1_linear_2516_2140)"/>
<path id="Vector_37" d="M123.313 39.5999L125.915 33.9946L126.835 32.0152L128.201 34.854L125.998 39.5999H123.313Z" fill="url(#paint2_linear_2516_2140)"/>
</g>
</g>
</g>
</g>
</g>
<defs>
<linearGradient id="paint0_linear_2516_2140" x1="134.788" y1="28.5536" x2="134.788" y2="39.3276" gradientUnits="userSpaceOnUse">
<stop offset="0.19" stop-color="#2D4C5D"/>
<stop offset="0.81" stop-color="#83A6C6"/>
</linearGradient>
<linearGradient id="paint1_linear_2516_2140" x1="129.995" y1="39.3711" x2="129.995" y2="28.8501" gradientUnits="userSpaceOnUse">
<stop stop-color="#B82C2A"/>
<stop offset="1" stop-color="#DE493B"/>
</linearGradient>
<linearGradient id="paint2_linear_2516_2140" x1="125.685" y1="39.3709" x2="125.685" y2="31.8041" gradientUnits="userSpaceOnUse">
<stop offset="0.19" stop-color="#2D4C5D"/>
<stop offset="0.81" stop-color="#83A6C6"/>
</linearGradient>
</defs>
</svg>
