<svg width="80" height="80" viewBox="0 0 80 80" fill="none" xmlns="http://www.w3.org/2000/svg">
<circle cx="40" cy="40" r="40" fill="#E7EBF0"/>
<path d="M40.652 54.7531C40.3368 55.0683 39.7765 55.1208 39.4088 54.7531C39.2448 54.5878 39.1528 54.3644 39.1528 54.1315C39.1528 53.8987 39.2448 53.6753 39.4088 53.51L45.3443 47.5744L42.8756 45.1057L36.9401 51.0412C36.6074 51.3914 36.0471 51.3739 35.6969 51.0412C35.5329 50.8759 35.4409 50.6525 35.4409 50.4196C35.4409 50.1868 35.5329 49.9634 35.6969 49.7981L41.6325 43.8626L39.1637 41.3938L33.2282 47.3293C32.913 47.6445 32.3527 47.697 31.9851 47.3293C31.8248 47.1621 31.7353 46.9394 31.7353 46.7078C31.7353 46.4761 31.8248 46.2534 31.9851 46.0862L37.9206 40.1507L35.4343 37.6819L29.4988 43.6174C29.1836 43.9326 28.6233 43.9851 28.2557 43.6174C28.0954 43.4502 28.0059 43.2275 28.0059 42.9959C28.0059 42.7642 28.0954 42.5415 28.2557 42.3743L35.9246 34.7054L39.1987 37.9621C40.8621 39.6254 43.7335 39.6079 45.3969 37.9621C47.1127 36.2462 47.1127 33.4798 45.3969 31.7639L42.1402 28.5073L42.6305 28.017C43.9962 26.6513 46.2198 26.6513 47.5855 28.017L55.0093 35.4408C56.3749 36.8065 56.3749 39.0301 55.0093 40.3958L40.652 54.7531Z" fill="#0197F6"/>
<path d="M40.6521 54.7531C40.3369 55.0683 39.7767 55.1208 39.409 54.7531C39.245 54.5878 39.1529 54.3644 39.1529 54.1315C39.1529 53.8987 39.245 53.6753 39.409 53.51L45.3445 47.5744L42.8757 45.1057L36.9402 51.0412C36.6076 51.3914 36.0473 51.3739 35.6971 51.0412C35.5331 50.8759 35.441 50.6525 35.441 50.4196C35.441 50.1868 35.5331 49.9634 35.6971 49.7981L41.6326 43.8626L39.1639 41.3938L33.2283 47.3293C32.9132 47.6445 32.3529 47.697 31.9852 47.3293C31.8249 47.1621 31.7354 46.9394 31.7354 46.7078C31.7354 46.4761 31.8249 46.2534 31.9852 46.0862L37.9207 40.1507L35.4345 37.6819L29.4989 43.6174C29.1838 43.9326 28.6235 43.9851 28.2558 43.6174C28.0955 43.4502 28.006 43.2275 28.006 42.9959C28.006 42.7642 28.0955 42.5415 28.2558 42.3743L35.9247 34.7054L39.1989 37.9621C40.8622 39.6254 43.7337 39.6079 45.397 37.9621C47.1129 36.2462 47.1129 33.4798 45.397 31.7639L42.1404 28.5073L42.6306 28.017C43.9963 26.6513 46.2199 26.6513 47.5856 28.017L55.0094 35.4408C56.3751 36.8065 56.3751 39.0301 55.0094 40.3958L40.6521 54.7531ZM57.4782 42.8821C58.7898 41.5666 59.5264 39.7847 59.5264 37.927C59.5264 36.0694 58.7898 34.2875 57.4782 32.972L50.0544 25.5483C48.7389 24.2366 46.957 23.5 45.0994 23.5C43.2417 23.5 41.4598 24.2366 40.1444 25.5483L39.6541 26.0385L39.1639 25.5483C37.8484 24.2366 36.0665 23.5 34.2088 23.5C32.3512 23.5 30.5693 24.2366 29.2538 25.5483L23.0557 31.7464C21.8712 32.9268 21.1492 34.4928 21.0207 36.1601C20.8922 37.8274 21.3657 39.4855 22.3553 40.8335L24.8941 38.2947C24.5556 37.6339 24.436 36.8826 24.5524 36.1493C24.6689 35.416 25.0154 34.7387 25.5419 34.2152L31.7401 28.017C33.1058 26.6513 35.3294 26.6513 36.6951 28.017L42.9283 34.2502C43.2434 34.5653 43.296 35.1256 42.9283 35.4933C42.5606 35.861 42.0003 35.8085 41.6851 35.4933L35.9247 29.7504L25.7695 39.888C24.0537 41.5864 24.0537 44.3703 25.7695 46.0862C26.4524 46.769 27.3278 47.1893 28.2558 47.3118C28.3784 48.2533 28.8089 49.1278 29.4803 49.7992C30.1517 50.4706 31.0262 50.9011 31.9677 51.0237C32.0903 51.9652 32.5208 52.8397 33.1922 53.5111C33.8635 54.1825 34.7381 54.613 35.6796 54.7356C35.8021 55.6811 36.2224 56.539 36.9052 57.2219C37.7281 58.0448 38.8312 58.5 40.0043 58.5C41.1774 58.5 42.2804 58.0448 43.1034 57.2219L57.4782 42.8821Z" fill="#0D3B66"/>
</svg>
