<svg width="80" height="80" viewBox="0 0 80 80" fill="none" xmlns="http://www.w3.org/2000/svg">
<circle cx="40" cy="40" r="40" fill="#E7EBF0"/>
<path d="M50 20.5H30C28.3431 20.5 27 21.8431 27 23.5V57.5C27 59.1569 28.3431 60.5 30 60.5H50C51.6569 60.5 53 59.1569 53 57.5V23.5C53 21.8431 51.6569 20.5 50 20.5Z" fill="#0197F6"/>
<path fill-rule="evenodd" clip-rule="evenodd" d="M30 22.5C29.4477 22.5 29 22.9477 29 23.5V57.5C29 58.0523 29.4477 58.5 30 58.5H50C50.5523 58.5 51 58.0523 51 57.5V23.5C51 22.9477 50.5523 22.5 50 22.5H30ZM25 23.5C25 20.7386 27.2386 18.5 30 18.5H50C52.7614 18.5 55 20.7386 55 23.5V57.5C55 60.2614 52.7614 62.5 50 62.5H30C27.2386 62.5 25 60.2614 25 57.5V23.5Z" fill="#0D3B66"/>
<path fill-rule="evenodd" clip-rule="evenodd" d="M36 26.5C36 25.3954 36.8954 24.5 38 24.5H42C43.1046 24.5 44 25.3954 44 26.5C44 27.6046 43.1046 28.5 42 28.5H38C36.8954 28.5 36 27.6046 36 26.5Z" fill="white"/>
<path fill-rule="evenodd" clip-rule="evenodd" d="M34 54.5C34 53.3954 34.8954 52.5 36 52.5H44C45.1046 52.5 46 53.3954 46 54.5C46 55.6046 45.1046 56.5 44 56.5H36C34.8954 56.5 34 55.6046 34 54.5Z" fill="white"/>
</svg>
