<svg width="141" height="28" viewBox="0 0 141 28" fill="none" xmlns="http://www.w3.org/2000/svg">
<path d="M20.1638 8.87579C19.6433 10.2034 18.7091 11.3218 17.5146 12.0936C17.8216 12.6691 17.9951 13.3166 17.9951 14.0033C17.9951 14.69 17.8216 15.344 17.5146 15.913C18.7091 16.6782 19.6433 17.8031 20.1638 19.1308C21.3316 17.7312 22.0389 15.9457 22.0389 14.0033C22.0389 12.0608 21.3382 10.2754 20.1638 8.87579Z" fill="#F16E00"/>
<path d="M10.748 11.1256C11.5153 10.3473 12.5897 9.86336 13.7775 9.86336C14.9652 9.86336 16.0396 10.3473 16.807 11.1256C17.968 10.3931 18.8422 9.25512 19.2092 7.91439C17.7545 6.66522 15.8527 5.90002 13.7775 5.90002C11.7022 5.90002 9.79373 6.66522 8.3457 7.91439C8.71939 9.25512 9.58687 10.3931 10.748 11.1256Z" fill="#F16E00"/>
<path d="M16.807 16.881C16.0396 17.6593 14.9652 18.1432 13.7775 18.1432C12.5897 18.1432 11.5153 17.6593 10.748 16.881C9.58687 17.6135 8.71271 18.7515 8.3457 20.0857C9.8004 21.3348 11.7022 22.1 13.7775 22.1C15.8527 22.1 17.7612 21.3348 19.2092 20.0857C18.8355 18.7449 17.968 17.6069 16.807 16.881Z" fill="#F16E00"/>
<path d="M10.034 15.913C9.72705 15.3375 9.55355 14.69 9.55355 14.0033C9.55355 13.3166 9.72705 12.6625 10.034 12.0936C8.83955 11.3284 7.90534 10.2034 7.38485 8.87579C6.21709 10.2754 5.50977 12.0608 5.50977 14.0033C5.50977 15.9457 6.21042 17.7312 7.38485 19.1308C7.90534 17.8031 8.83955 16.6847 10.034 15.913Z" fill="#F16E00"/>
<path d="M13.774 27.5C11.5243 27.5 9.41226 26.6375 7.82059 25.085L2.46402 19.835C0.872356 18.275 0 16.205 0 14C0 11.795 0.880008 9.725 2.46402 8.165L7.82059 2.915C9.41226 1.355 11.5243 0.5 13.774 0.5C16.0238 0.5 18.1358 1.3625 19.7275 2.915L25.084 8.165C26.6757 9.725 27.5481 11.795 27.5481 14C27.5481 16.205 26.6681 18.275 25.084 19.835L19.7275 25.085C18.1358 26.645 16.0238 27.5 13.774 27.5ZM13.774 2.045C11.9452 2.045 10.231 2.7425 8.93782 4.01L3.58125 9.26C2.28802 10.5275 1.57636 12.2075 1.57636 14C1.57636 15.7925 2.28802 17.4725 3.58125 18.74L8.93782 23.99C10.231 25.2575 11.9452 25.955 13.774 25.955C15.6029 25.955 17.317 25.2575 18.6103 23.99L23.9668 18.74C25.2601 17.4725 25.9717 15.7925 25.9717 14C25.9717 12.2075 25.2601 10.5275 23.9668 9.26L18.6103 4.01C17.317 2.7425 15.6029 2.045 13.774 2.045Z" fill="#0D3B66"/>
<path d="M33.0653 14.0601V2.89258H37.1975C40.618 2.89258 42.9137 5.03758 42.9137 8.48008C42.9137 11.9226 40.618 14.0526 37.1745 14.0526H33.0576L33.0653 14.0601ZM37.0827 11.7126C38.8351 11.7126 40.266 10.7226 40.266 8.48758C40.266 6.25258 38.8351 5.24008 37.0827 5.24008H35.6058V11.7126H37.0827Z" fill="#0D3B66"/>
<path d="M51.9124 11.81C51.5298 13.1675 50.2595 14.3 48.2317 14.3C46.0278 14.3 44.0688 12.755 44.0688 10.13C44.0688 7.50501 45.9819 6.005 48.0557 6.005C50.5273 6.005 52.0578 7.49751 52.0578 10.0175C52.0578 10.3475 52.0272 10.7075 52.0119 10.76H46.4563C46.5023 11.645 47.3211 12.275 48.2699 12.275C49.1499 12.275 49.6473 11.8625 49.8769 11.2475L51.9201 11.8175L51.9124 11.81ZM49.6932 9.20751C49.6626 8.60751 49.2418 7.88751 48.0863 7.88751C47.0609 7.88751 46.5405 8.63001 46.4946 9.20751H49.6932Z" fill="#0D3B66"/>
<path d="M53.6268 14.06V2.66003H56.0219V6.97253C56.3586 6.48503 57.2463 6.04253 58.3329 6.04253C60.6439 6.04253 62.0443 7.77503 62.0443 10.1225C62.0443 12.47 60.4679 14.2325 58.2334 14.2325C57.1698 14.2325 56.351 13.775 55.9837 13.175V14.06H53.6191H53.6268ZM57.8049 8.20253C56.856 8.20253 55.9913 8.81753 55.9913 10.1375C55.9913 11.4575 56.856 12.0875 57.8049 12.0875C58.7538 12.0875 59.6032 11.4425 59.6032 10.1375C59.6032 8.83253 58.7538 8.20253 57.8049 8.20253Z" fill="#0D3B66"/>
<path d="M66.5364 6.23752H68.0975V8.33002H66.5364V11.2625C66.5364 11.9075 66.8884 12.08 67.4164 12.08C67.6766 12.08 67.9138 12.035 68.0592 11.9975V13.985C67.9597 14.03 67.5618 14.2025 66.7889 14.2025C65.1361 14.2025 64.1183 13.2425 64.1183 11.6825V8.33002H62.7026V6.23752H63.1082C63.9423 6.23752 64.3479 5.69002 64.3479 4.96252V3.95752H66.5364V6.23752Z" fill="#0D3B66"/>
<path d="M69.2524 8.50253C69.2524 5.02253 71.9537 2.66003 75.137 2.66003C78.5576 2.66003 80.0727 4.82003 80.44 6.42503L78.0449 7.16753C77.8689 6.39503 77.1419 5.09003 75.137 5.09003C73.6066 5.09003 71.8925 6.16253 71.8925 8.51003C71.8925 10.6025 73.4688 11.8175 75.1676 11.8175C77.1419 11.8175 77.9301 10.5275 78.1597 9.72503L80.5854 10.4C80.2181 11.945 78.703 14.3075 75.1676 14.3075C71.8925 14.3075 69.2524 11.99 69.2524 8.51003V8.50253Z" fill="#0D3B66"/>
<path d="M81.9941 14.06V2.66003H84.4352V14.06H81.9941Z" fill="#0D3B66"/>
<path d="M93.8553 11.81C93.4727 13.1675 92.2024 14.3 90.1745 14.3C87.9707 14.3 86.0117 12.755 86.0117 10.13C86.0117 7.50501 87.9248 6.005 89.9985 6.005C92.4702 6.005 94.0007 7.49751 94.0007 10.0175C94.0007 10.3475 93.97 10.7075 93.9547 10.76H88.3992C88.4451 11.645 89.2639 12.275 90.2128 12.275C91.1005 12.275 91.5979 11.8625 91.8198 11.2475L93.8629 11.8175L93.8553 11.81ZM91.6361 9.20751C91.6055 8.60751 91.1846 7.88751 90.0291 7.88751C89.0037 7.88751 88.4834 8.63001 88.4375 9.20751H91.6361Z" fill="#0D3B66"/>
<path d="M97.4513 9.54501L99.3337 9.26C99.7699 9.20001 99.9153 8.99001 99.9153 8.72751C99.9153 8.27001 99.5174 7.88 98.7445 7.88C97.8951 7.88 97.4283 8.45001 97.3824 9.02751L95.2627 8.60001C95.3546 7.48251 96.4182 6.005 98.7675 6.005C101.354 6.005 102.303 7.42251 102.303 9.02751V12.8525C102.303 13.4675 102.387 13.985 102.402 14.0675H100.198C100.183 14.0075 100.114 13.7225 100.114 13.1825C99.7011 13.8425 98.9282 14.285 97.8645 14.285C96.1121 14.285 95.1021 13.1525 95.1021 11.9075C95.1021 10.52 96.1504 9.73251 97.4666 9.54501H97.4513ZM99.9077 10.9925V10.6475L98.4002 10.8875C97.8875 10.9625 97.4972 11.2025 97.4972 11.75C97.4972 12.1625 97.7727 12.5525 98.4461 12.5525C99.173 12.5525 99.9077 12.2075 99.9077 10.9925Z" fill="#0D3B66"/>
<path d="M109.427 8.6001C109.151 8.5401 108.899 8.5251 108.654 8.5251C107.674 8.5251 106.787 9.0951 106.787 10.6476V14.0676H104.346V6.2376H106.71V7.2951C107.131 6.4101 108.141 6.1626 108.784 6.1626C109.029 6.1626 109.266 6.1926 109.427 6.2376V8.6001Z" fill="#0D3B66"/>
<path d="M111.034 10.2501V2.89258H112.595V10.1976C112.595 11.9001 113.544 12.8601 115.136 12.8601C116.727 12.8601 117.661 11.9001 117.661 10.1976V2.89258H119.237V10.2501C119.237 12.8826 117.454 14.3001 115.143 14.3001C112.832 14.3001 111.049 12.8826 111.049 10.2501H111.034Z" fill="#0D3B66"/>
<path d="M127.808 5.9226C127.678 5.1201 126.989 4.0176 125.397 4.0176C124.112 4.0176 123.194 4.8351 123.194 5.8776C123.194 6.6801 123.691 7.2951 124.655 7.4976L126.362 7.8576C128.259 8.2701 129.315 9.4326 129.315 10.9926C129.315 12.7251 127.808 14.3001 125.382 14.3001C122.635 14.3001 121.334 12.5676 121.127 10.9776L122.635 10.5051C122.75 11.7501 123.645 12.8976 125.367 12.8976C126.943 12.8976 127.716 12.0951 127.716 11.1201C127.716 10.3176 127.15 9.6276 126.01 9.3876L124.387 9.0426C122.765 8.6976 121.61 7.6551 121.61 5.9901C121.61 4.3251 123.262 2.6676 125.367 2.6676C127.938 2.6676 128.963 4.2276 129.224 5.4426L127.808 5.9301V5.9226Z" fill="#0D3B66"/>
<path d="M138.061 10.9401H133.019L131.809 14.0601H130.126L134.656 2.89258H136.47L141 14.0601H139.301L138.061 10.9401ZM133.577 9.50758H137.495L135.521 4.49758L133.577 9.50758Z" fill="#0D3B66"/>
<path d="M116.228 24.3249L115.423 22.8939H115.198V24.3249H114.255V20.5341H115.837C116.142 20.5341 116.4 20.5863 116.613 20.6907C116.83 20.7951 116.992 20.9391 117.098 21.1227C117.205 21.3027 117.258 21.5043 117.258 21.7275C117.258 21.9795 117.185 22.2045 117.038 22.4025C116.894 22.6005 116.681 22.7409 116.399 22.8237L117.291 24.3249H116.228ZM115.198 22.2405H115.782C115.954 22.2405 116.083 22.1991 116.167 22.1163C116.255 22.0335 116.299 21.9165 116.299 21.7653C116.299 21.6213 116.255 21.5079 116.167 21.4251C116.083 21.3423 115.954 21.3009 115.782 21.3009H115.198V22.2405Z" fill="#0D3B66"/>
<path d="M111.202 24.3626C110.839 24.3626 110.504 24.2798 110.2 24.1142C109.898 23.9486 109.658 23.7182 109.478 23.423C109.302 23.1242 109.213 22.7894 109.213 22.4186C109.213 22.0478 109.302 21.7148 109.478 21.4196C109.658 21.1244 109.898 20.894 110.2 20.7284C110.504 20.5628 110.839 20.48 111.202 20.48C111.566 20.48 111.898 20.5628 112.2 20.7284C112.504 20.894 112.743 21.1244 112.916 21.4196C113.092 21.7148 113.18 22.0478 113.18 22.4186C113.18 22.7894 113.092 23.1242 112.916 23.423C112.74 23.7182 112.501 23.9486 112.2 24.1142C111.898 24.2798 111.566 24.3626 111.202 24.3626ZM111.202 23.5202C111.511 23.5202 111.757 23.4194 111.941 23.2178C112.128 23.0162 112.222 22.7498 112.222 22.4186C112.222 22.0838 112.128 21.8174 111.941 21.6194C111.757 21.4178 111.511 21.317 111.202 21.317C110.89 21.317 110.64 21.416 110.453 21.614C110.269 21.812 110.178 22.0802 110.178 22.4186C110.178 22.7534 110.269 23.0216 110.453 23.2232C110.64 23.4212 110.89 23.5202 111.202 23.5202Z" fill="#0D3B66"/>
<path d="M104.466 22.424C104.466 22.0496 104.548 21.7166 104.714 21.425C104.879 21.1298 105.109 20.9012 105.402 20.7392C105.7 20.5736 106.036 20.4908 106.411 20.4908C106.87 20.4908 107.263 20.6096 107.59 20.8472C107.917 21.0848 108.135 21.4088 108.245 21.8192H107.21C107.132 21.6608 107.022 21.5402 106.879 21.4574C106.739 21.3746 106.58 21.3332 106.4 21.3332C106.11 21.3332 105.874 21.4322 105.694 21.6302C105.514 21.8282 105.424 22.0928 105.424 22.424C105.424 22.7552 105.514 23.0198 105.694 23.2178C105.874 23.4158 106.11 23.5148 106.4 23.5148C106.58 23.5148 106.739 23.4734 106.879 23.3906C107.022 23.3078 107.132 23.1872 107.21 23.0288H108.245C108.135 23.4392 107.917 23.7632 107.59 24.0008C107.263 24.2348 106.87 24.3518 106.411 24.3518C106.036 24.3518 105.7 24.2708 105.402 24.1088C105.109 23.9432 104.879 23.7146 104.714 23.423C104.548 23.1314 104.466 22.7984 104.466 22.424Z" fill="#0D3B66"/>
<path d="M103.392 20.5341V24.3249H102.45V20.5341H103.392Z" fill="#0D3B66"/>
<path d="M100.277 24.3249L99.4722 22.8939H99.2463V24.3249H98.3042V20.5341H99.8855C100.19 20.5341 100.449 20.5863 100.662 20.6907C100.879 20.7951 101.041 20.9391 101.147 21.1227C101.254 21.3027 101.307 21.5043 101.307 21.7275C101.307 21.9795 101.233 22.2045 101.087 22.4025C100.943 22.6005 100.73 22.7409 100.447 22.8237L101.34 24.3249H100.277ZM99.2463 22.2405H99.8304C100.003 22.2405 100.132 22.1991 100.216 22.1163C100.304 22.0335 100.348 21.9165 100.348 21.7653C100.348 21.6213 100.304 21.5079 100.216 21.4251C100.132 21.3423 100.003 21.3009 99.8304 21.3009H99.2463V22.2405Z" fill="#0D3B66"/>
<path d="M95.7146 21.2739V22.0407H96.9763V22.7535H95.7146V23.5851H97.1416V24.3249H94.7725V20.5341H97.1416V21.2739H95.7146Z" fill="#0D3B66"/>
<path d="M93.5442 20.5341V24.3249H92.6021V22.0515L91.7371 24.3249H90.9767L90.1062 22.0461V24.3249H89.1641V20.5341H90.277L91.3624 23.1585L92.4368 20.5341H93.5442Z" fill="#0D3B66"/>
<path d="M86.9585 23.6553H85.515L85.2836 24.3249H84.2974L85.6968 20.5341H86.7877L88.1872 24.3249H87.1899L86.9585 23.6553ZM86.7161 22.9425L86.2367 21.5547L85.7629 22.9425H86.7161Z" fill="#0D3B66"/>
<path d="M73.5974 20.2368L72.2585 22.7748V24.0276H71.3164V22.7748L69.9775 20.2368H71.0464L71.7957 21.8244L72.5395 20.2368H73.5974Z" fill="#0D3B66"/>
<path d="M68.4392 22.0836C68.6633 22.1304 68.8433 22.2402 68.9792 22.413C69.1151 22.5822 69.183 22.7766 69.183 22.9962C69.183 23.313 69.0692 23.565 68.8414 23.7522C68.6174 23.9358 68.3033 24.0276 67.8993 24.0276H66.0977V20.2368H67.8387C68.2317 20.2368 68.5384 20.325 68.7588 20.5014C68.9829 20.6778 69.0949 20.9172 69.0949 21.2196C69.0949 21.4428 69.0343 21.6282 68.9131 21.7758C68.7955 21.9234 68.6376 22.026 68.4392 22.0836ZM67.0398 21.7704H67.6569C67.8111 21.7704 67.9287 21.738 68.0095 21.6732C68.094 21.6048 68.1362 21.5058 68.1362 21.3762C68.1362 21.2466 68.094 21.1476 68.0095 21.0792C67.9287 21.0108 67.8111 20.9766 67.6569 20.9766H67.0398V21.7704ZM67.734 23.2824C67.892 23.2824 68.0132 23.2482 68.0976 23.1798C68.1858 23.1078 68.2299 23.0052 68.2299 22.872C68.2299 22.7388 68.184 22.6344 68.0921 22.5588C68.004 22.4832 67.8809 22.4454 67.723 22.4454H67.0398V23.2824H67.734Z" fill="#0D3B66"/>
<path d="M61.2742 20.2368C61.6819 20.2368 62.0382 20.316 62.3431 20.4744C62.648 20.6328 62.883 20.856 63.0483 21.144C63.2173 21.4284 63.3018 21.7578 63.3018 22.1322C63.3018 22.503 63.2173 22.8324 63.0483 23.1204C62.883 23.4084 62.6461 23.6316 62.3376 23.79C62.0327 23.9484 61.6783 24.0276 61.2742 24.0276H59.8252V20.2368H61.2742ZM61.2136 23.2284C61.5699 23.2284 61.8472 23.133 62.0456 22.9422C62.2439 22.7514 62.3431 22.4814 62.3431 22.1322C62.3431 21.783 62.2439 21.5112 62.0456 21.3168C61.8472 21.1224 61.5699 21.0252 61.2136 21.0252H60.7673V23.2284H61.2136Z" fill="#0D3B66"/>
<path d="M57.2356 20.9766V21.7434H58.4973V22.4562H57.2356V23.2878H58.6626V24.0276H56.2935V20.2368H58.6626V20.9766H57.2356Z" fill="#0D3B66"/>
<path d="M54.1209 24.0276L53.3165 22.5966H53.0906V24.0276H52.1484V20.2368H53.7297C54.0346 20.2368 54.2935 20.289 54.5066 20.3934C54.7233 20.4978 54.8849 20.6418 54.9914 20.8254C55.0979 21.0054 55.1512 21.207 55.1512 21.4302C55.1512 21.6822 55.0777 21.9072 54.9308 22.1052C54.7875 22.3032 54.5745 22.4436 54.2917 22.5264L55.1842 24.0276H54.1209ZM53.0906 21.9432H53.6746C53.8472 21.9432 53.9758 21.9018 54.0603 21.819C54.1484 21.7362 54.1925 21.6192 54.1925 21.468C54.1925 21.324 54.1484 21.2106 54.0603 21.1278C53.9758 21.045 53.8472 21.0036 53.6746 21.0036H53.0906V21.9432Z" fill="#0D3B66"/>
<path d="M49.5588 20.9766V21.7434H50.8205V22.4562H49.5588V23.2878H50.9858V24.0276H48.6167V20.2368H50.9858V20.9766H49.5588Z" fill="#0D3B66"/>
<path d="M47.593 20.2368L46.5848 24.0276H45.4443L44.8272 21.5328L44.1881 24.0276H43.0476L42.0669 20.2368H43.0752L43.6316 22.9962L44.3203 20.2368H45.3561L46.0173 22.9962L46.5793 20.2368H47.593Z" fill="#0D3B66"/>
<path d="M39.2175 24.0653C38.8539 24.0653 38.5196 23.9825 38.2147 23.8169C37.9135 23.6513 37.673 23.4209 37.493 23.1257C37.3167 22.8269 37.2285 22.4921 37.2285 22.1213C37.2285 21.7505 37.3167 21.4175 37.493 21.1223C37.673 20.8271 37.9135 20.5967 38.2147 20.4311C38.5196 20.2655 38.8539 20.1827 39.2175 20.1827C39.5811 20.1827 39.9135 20.2655 40.2147 20.4311C40.5196 20.5967 40.7583 20.8271 40.931 21.1223C41.1073 21.4175 41.1954 21.7505 41.1954 22.1213C41.1954 22.4921 41.1073 22.8269 40.931 23.1257C40.7547 23.4209 40.5159 23.6513 40.2147 23.8169C39.9135 23.9825 39.5811 24.0653 39.2175 24.0653ZM39.2175 23.2229C39.526 23.2229 39.7721 23.1221 39.9558 22.9205C40.1431 22.7189 40.2368 22.4525 40.2368 22.1213C40.2368 21.7865 40.1431 21.5201 39.9558 21.3221C39.7721 21.1205 39.526 21.0197 39.2175 21.0197C38.9053 21.0197 38.6555 21.1187 38.4682 21.3167C38.2845 21.5147 38.1927 21.7829 38.1927 22.1213C38.1927 22.4561 38.2845 22.7243 38.4682 22.9259C38.6555 23.1239 38.9053 23.2229 39.2175 23.2229Z" fill="#0D3B66"/>
<path d="M36.3471 21.4572C36.3471 21.6768 36.2956 21.8784 36.1928 22.062C36.0899 22.242 35.932 22.3878 35.719 22.4994C35.5059 22.611 35.2415 22.6668 34.9256 22.6668H34.3416V24.0276H33.3994V20.2368H34.9256C35.2341 20.2368 35.4949 20.289 35.7079 20.3934C35.921 20.4978 36.0808 20.6418 36.1873 20.8254C36.2938 21.009 36.3471 21.2196 36.3471 21.4572ZM34.854 21.9324C35.0339 21.9324 35.168 21.891 35.2562 21.8082C35.3443 21.7254 35.3884 21.6084 35.3884 21.4572C35.3884 21.306 35.3443 21.189 35.2562 21.1062C35.168 21.0234 35.0339 20.982 34.854 20.982H34.3416V21.9324H34.854Z" fill="#0D3B66"/>
<path d="M80.4199 24.26L82.8064 19.222L82.4906 19.1848L84.1616 17.78L84.5161 19.9721L84.2051 19.74L82.0643 24.26H80.4199Z" fill="url(#paint0_linear_2661_653)"/>
<path d="M77.7041 24.26L80.1381 19.1209L80.7005 17.9332L81.5376 19.6365L79.3477 24.26H77.7041Z" fill="url(#paint1_linear_2661_653)"/>
<path d="M75.4819 24.26L77.0748 20.8968L77.638 19.7092L78.4743 21.4125L77.1256 24.26H75.4819Z" fill="url(#paint2_linear_2661_653)"/>
<defs>
<linearGradient id="paint0_linear_2661_653" x1="82.507" y1="17.6321" x2="82.507" y2="24.0965" gradientUnits="userSpaceOnUse">
<stop offset="0.19" stop-color="#2D4C5D"/>
<stop offset="0.81" stop-color="#83A6C6"/>
</linearGradient>
<linearGradient id="paint1_linear_2661_653" x1="79.5726" y1="24.1226" x2="79.5726" y2="17.81" gradientUnits="userSpaceOnUse">
<stop stop-color="#B82C2A"/>
<stop offset="1" stop-color="#DE493B"/>
</linearGradient>
<linearGradient id="paint2_linear_2661_653" x1="76.9341" y1="24.1226" x2="76.9341" y2="19.5825" gradientUnits="userSpaceOnUse">
<stop offset="0.19" stop-color="#2D4C5D"/>
<stop offset="0.81" stop-color="#83A6C6"/>
</linearGradient>
</defs>
</svg>
