<svg width="255" height="50" viewBox="0 0 255 50" fill="none" xmlns="http://www.w3.org/2000/svg">
<path d="M37.0275 15.5107C36.0911 17.9694 34.4104 20.0404 32.2615 21.4696C32.8137 22.5354 33.1258 23.7344 33.1258 25.0061C33.1258 26.2778 32.8137 27.4889 32.2615 28.5426C34.4104 29.9596 36.0911 32.0428 37.0275 34.5014C39.1283 31.9096 40.4009 28.6032 40.4009 25.0061C40.4009 21.409 39.1404 18.1026 37.0275 15.5107Z" fill="white"/>
<path d="M20.0879 19.677C21.4685 18.2358 23.4013 17.3395 25.5382 17.3395C27.6751 17.3395 29.6079 18.2358 30.9885 19.677C33.0774 18.3205 34.65 16.2131 35.3103 13.7303C32.6932 11.417 29.2718 10 25.5382 10C21.8046 10 18.3712 11.417 15.7661 13.7303C16.4384 16.2131 17.999 18.3205 20.0879 19.677Z" fill="white"/>
<path d="M30.9885 30.3352C29.6079 31.7765 27.6751 32.6727 25.5382 32.6727C23.4013 32.6727 21.4685 31.7765 20.0879 30.3352C17.999 31.6917 16.4264 33.7991 15.7661 36.2698C18.3832 38.5831 21.8046 40.0001 25.5382 40.0001C29.2718 40.0001 32.7052 38.5831 35.3103 36.2698C34.638 33.787 33.0774 31.6796 30.9885 30.3352Z" fill="white"/>
<path d="M18.8037 28.5426C18.2515 27.4768 17.9393 26.2778 17.9393 25.0061C17.9393 23.7344 18.2515 22.5232 18.8037 21.4696C16.6548 20.0525 14.9741 17.9694 14.0377 15.5107C11.9368 18.1026 10.6643 21.409 10.6643 25.0061C10.6643 28.6032 11.9248 31.9096 14.0377 34.5014C14.9741 32.0428 16.6548 29.9718 18.8037 28.5426Z" fill="white"/>
<path d="M25.5326 50C21.4851 50 17.6855 48.4028 14.822 45.5278L5.18514 35.8056C2.32162 32.9167 0.752197 29.0833 0.752197 25C0.752197 20.9167 2.33539 17.0833 5.18514 14.1944L14.822 4.47222C17.6855 1.58333 21.4851 0 25.5326 0C29.5801 0 33.3798 1.59722 36.2433 4.47222L45.8801 14.1944C48.7436 17.0833 50.313 20.9167 50.313 25C50.313 29.0833 48.7298 32.9167 45.8801 35.8056L36.2433 45.5278C33.3798 48.4167 29.5801 50 25.5326 50ZM25.5326 2.86111C22.2423 2.86111 19.1585 4.15278 16.8319 6.5L7.19511 16.2222C4.8685 18.5694 3.58818 21.6806 3.58818 25C3.58818 28.3194 4.8685 31.4306 7.19511 33.7778L16.8319 43.5C19.1585 45.8472 22.2423 47.1389 25.5326 47.1389C28.8229 47.1389 31.9067 45.8472 34.2333 43.5L43.8701 33.7778C46.1967 31.4306 47.4771 28.3194 47.4771 25C47.4771 21.6806 46.1967 18.5694 43.8701 16.2222L34.2333 6.5C31.9067 4.15278 28.8229 2.86111 25.5326 2.86111Z" fill="white"/>
<path d="M60.239 25.1112V4.43066H67.6731C73.8269 4.43066 77.957 8.40289 77.957 14.7779C77.957 21.1529 73.8269 25.0973 67.6318 25.0973H60.2252L60.239 25.1112ZM67.4666 20.764C70.6192 20.764 73.1936 18.9307 73.1936 14.7918C73.1936 10.6529 70.6192 8.77789 67.4666 8.77789H64.8096V20.764H67.4666Z" fill="white"/>
<path d="M94.1461 20.9443C93.4578 23.4582 91.1725 25.5554 87.5242 25.5554C83.5594 25.5554 80.035 22.6943 80.035 17.8332C80.035 12.9721 83.4768 10.1943 87.2076 10.1943C91.6543 10.1943 94.4077 12.9582 94.4077 17.6249C94.4077 18.236 94.3526 18.9027 94.3251 18.9999H84.3303C84.4129 20.6388 85.886 21.8054 87.5931 21.8054C89.1763 21.8054 90.0711 21.0416 90.4841 19.9027L94.1599 20.9582L94.1461 20.9443ZM90.1537 16.1249C90.0986 15.0138 89.3415 13.6804 87.2627 13.6804C85.4179 13.6804 84.4817 15.0554 84.3991 16.1249H90.1537Z" fill="white"/>
<path d="M97.2306 25.1111V4H101.54V11.9861C102.145 11.0833 103.742 10.2639 105.697 10.2639C109.855 10.2639 112.374 13.4722 112.374 17.8194C112.374 22.1667 109.538 25.4306 105.518 25.4306C103.605 25.4306 102.132 24.5833 101.471 23.4722V25.1111H97.2168H97.2306ZM104.747 14.2639C103.04 14.2639 101.485 15.4028 101.485 17.8472C101.485 20.2917 103.04 21.4583 104.747 21.4583C106.454 21.4583 107.983 20.2639 107.983 17.8472C107.983 15.4306 106.454 14.2639 104.747 14.2639Z" fill="white"/>
<path d="M120.456 10.6251H123.265V14.5001H120.456V19.9306C120.456 21.1251 121.089 21.4445 122.039 21.4445C122.507 21.4445 122.934 21.3612 123.196 21.2917V24.9723C123.017 25.0556 122.301 25.3751 120.91 25.3751C117.937 25.3751 116.106 23.5973 116.106 20.7084V14.5001H113.559V10.6251H114.288C115.789 10.6251 116.519 9.61117 116.519 8.26394V6.40283H120.456V10.6251Z" fill="white"/>
<path d="M125.343 14.8194C125.343 8.375 130.202 4 135.929 4C142.083 4 144.809 8 145.47 10.9722L141.161 12.3472C140.844 10.9167 139.536 8.5 135.929 8.5C133.176 8.5 130.092 10.4861 130.092 14.8333C130.092 18.7083 132.928 20.9583 135.984 20.9583C139.536 20.9583 140.954 18.5694 141.367 17.0833L145.731 18.3333C145.07 21.1944 142.345 25.5694 135.984 25.5694C130.092 25.5694 125.343 21.2778 125.343 14.8333V14.8194Z" fill="white"/>
<path d="M148.265 25.1111V4H152.657V25.1111H148.265Z" fill="white"/>
<path d="M169.604 20.9443C168.916 23.4582 166.63 25.5554 162.982 25.5554C159.017 25.5554 155.493 22.6943 155.493 17.8332C155.493 12.9721 158.935 10.1943 162.665 10.1943C167.112 10.1943 169.866 12.9582 169.866 17.6249C169.866 18.236 169.81 18.9027 169.783 18.9999H159.788C159.871 20.6388 161.344 21.8054 163.051 21.8054C164.648 21.8054 165.543 21.0416 165.942 19.9027L169.618 20.9582L169.604 20.9443ZM165.612 16.1249C165.557 15.0138 164.799 13.6804 162.721 13.6804C160.876 13.6804 159.94 15.0554 159.857 16.1249H165.612Z" fill="white"/>
<path d="M176.074 16.7499L179.461 16.2221C180.245 16.111 180.507 15.7221 180.507 15.236C180.507 14.3888 179.791 13.6666 178.4 13.6666C176.872 13.6666 176.033 14.7221 175.95 15.7916L172.137 14.9999C172.302 12.9304 174.215 10.1943 178.442 10.1943C183.095 10.1943 184.802 12.8193 184.802 15.7916V22.8749C184.802 24.0138 184.953 24.9721 184.981 25.1249H181.016C180.989 25.0138 180.865 24.486 180.865 23.486C180.121 24.7082 178.731 25.5277 176.817 25.5277C173.665 25.5277 171.847 23.4304 171.847 21.1249C171.847 18.5554 173.733 17.0971 176.101 16.7499H176.074ZM180.493 19.4304V18.7916L177.781 19.236C176.859 19.3749 176.156 19.8193 176.156 20.8332C176.156 21.5971 176.652 22.3193 177.864 22.3193C179.171 22.3193 180.493 21.6804 180.493 19.4304Z" fill="white"/>
<path d="M197.619 15C197.123 14.8889 196.669 14.8611 196.228 14.8611C194.466 14.8611 192.869 15.9166 192.869 18.7916V25.125H188.477V10.625H192.731V12.5833C193.489 10.9444 195.306 10.4861 196.462 10.4861C196.903 10.4861 197.33 10.5416 197.619 10.625V15Z" fill="white"/>
<path d="M200.51 18.0557V4.43066H203.319V17.9584C203.319 21.1112 205.026 22.889 207.89 22.889C210.753 22.889 212.433 21.1112 212.433 17.9584V4.43066H215.269V18.0557C215.269 22.9307 212.061 25.5557 207.903 25.5557C203.746 25.5557 200.538 22.9307 200.538 18.0557H200.51Z" fill="white"/>
<path d="M230.687 10.0417C230.453 8.55558 229.214 6.51392 226.35 6.51392C224.038 6.51392 222.386 8.0278 222.386 9.95836C222.386 11.4445 223.28 12.5834 225.015 12.9584L228.085 13.625C231.499 14.3889 233.399 16.5417 233.399 19.4306C233.399 22.6389 230.687 25.5556 226.323 25.5556C221.381 25.5556 219.04 22.3473 218.668 19.4028L221.381 18.5278C221.587 20.8334 223.198 22.9584 226.295 22.9584C229.131 22.9584 230.522 21.4722 230.522 19.6667C230.522 18.1806 229.503 16.9028 227.452 16.4584L224.533 15.8195C221.615 15.1806 219.536 13.25 219.536 10.1667C219.536 7.08336 222.509 4.01392 226.295 4.01392C230.921 4.01392 232.766 6.9028 233.234 9.1528L230.687 10.0556V10.0417Z" fill="white"/>
<path d="M249.134 19.3334H240.062L237.887 25.1112H234.858L243.008 4.43066H246.271L254.421 25.1112H251.364L249.134 19.3334ZM241.067 16.6807H248.115L244.564 7.40289L241.067 16.6807Z" fill="white"/>
<path d="M209.853 44.1201L208.406 41.4701H208V44.1201H206.305V37.1001H209.15C209.698 37.1001 210.164 37.1968 210.547 37.3901C210.937 37.5834 211.228 37.8501 211.419 38.1901C211.611 38.5234 211.707 38.8968 211.707 39.3101C211.707 39.7768 211.575 40.1934 211.31 40.5601C211.053 40.9268 210.669 41.1868 210.161 41.3401L211.766 44.1201H209.853ZM208 40.2601H209.05C209.361 40.2601 209.592 40.1834 209.744 40.0301C209.903 39.8768 209.982 39.6601 209.982 39.3801C209.982 39.1134 209.903 38.9034 209.744 38.7501C209.592 38.5968 209.361 38.5201 209.05 38.5201H208V40.2601Z" fill="white"/>
<path d="M200.812 44.19C200.158 44.19 199.557 44.0367 199.008 43.73C198.466 43.4233 198.033 42.9967 197.71 42.45C197.392 41.8967 197.234 41.2767 197.234 40.59C197.234 39.9033 197.392 39.2867 197.71 38.74C198.033 38.1933 198.466 37.7667 199.008 37.46C199.557 37.1533 200.158 37 200.812 37C201.466 37 202.064 37.1533 202.606 37.46C203.155 37.7667 203.584 38.1933 203.895 38.74C204.212 39.2867 204.371 39.9033 204.371 40.59C204.371 41.2767 204.212 41.8967 203.895 42.45C203.578 42.9967 203.148 43.4233 202.606 43.73C202.064 44.0367 201.466 44.19 200.812 44.19ZM200.812 42.63C201.367 42.63 201.81 42.4433 202.14 42.07C202.477 41.6967 202.646 41.2033 202.646 40.59C202.646 39.97 202.477 39.4767 202.14 39.11C201.81 38.7367 201.367 38.55 200.812 38.55C200.25 38.55 199.801 38.7333 199.464 39.1C199.134 39.4667 198.969 39.9633 198.969 40.59C198.969 41.21 199.134 41.7067 199.464 42.08C199.801 42.4467 200.25 42.63 200.812 42.63Z" fill="white"/>
<path d="M188.692 40.6C188.692 39.9067 188.841 39.29 189.138 38.75C189.436 38.2034 189.849 37.78 190.377 37.48C190.913 37.1734 191.517 37.02 192.191 37.02C193.017 37.02 193.724 37.24 194.313 37.68C194.901 38.12 195.294 38.72 195.492 39.48H193.629C193.49 39.1867 193.292 38.9634 193.034 38.81C192.783 38.6567 192.495 38.58 192.172 38.58C191.65 38.58 191.227 38.7634 190.903 39.13C190.579 39.4967 190.417 39.9867 190.417 40.6C190.417 41.2134 190.579 41.7034 190.903 42.07C191.227 42.4367 191.65 42.62 192.172 42.62C192.495 42.62 192.783 42.5434 193.034 42.39C193.292 42.2367 193.49 42.0134 193.629 41.72H195.492C195.294 42.48 194.901 43.08 194.313 43.52C193.724 43.9534 193.017 44.17 192.191 44.17C191.517 44.17 190.913 44.02 190.377 43.72C189.849 43.4134 189.436 42.99 189.138 42.45C188.841 41.91 188.692 41.2934 188.692 40.6Z" fill="white"/>
<path d="M186.76 37.1001V44.1201H185.065V37.1001H186.76Z" fill="white"/>
<path d="M181.156 44.1201L179.709 41.4701H179.303V44.1201H177.608V37.1001H180.453C181.001 37.1001 181.467 37.1968 181.85 37.3901C182.24 37.5834 182.531 37.8501 182.723 38.1901C182.914 38.5234 183.01 38.8968 183.01 39.3101C183.01 39.7768 182.878 40.1934 182.614 40.5601C182.356 40.9268 181.973 41.1868 181.464 41.3401L183.07 44.1201H181.156ZM179.303 40.2601H180.354C180.664 40.2601 180.895 40.1834 181.047 40.0301C181.206 39.8768 181.285 39.6601 181.285 39.3801C181.285 39.1134 181.206 38.9034 181.047 38.7501C180.895 38.5968 180.664 38.5201 180.354 38.5201H179.303V40.2601Z" fill="white"/>
<path d="M172.949 38.4701V39.8901H175.219V41.2101H172.949V42.7501H175.516V44.1201H171.254V37.1001H175.516V38.4701H172.949Z" fill="white"/>
<path d="M169.044 37.1001V44.1201H167.349V39.9101L165.793 44.1201H164.425L162.859 39.9001V44.1201H161.164V37.1001H163.166L165.119 41.9601L167.052 37.1001H169.044Z" fill="white"/>
<path d="M157.196 42.8801H154.599L154.183 44.1201H152.408L154.926 37.1001H156.889L159.406 44.1201H157.612L157.196 42.8801ZM156.76 41.5601L155.897 38.9901L155.045 41.5601H156.76Z" fill="white"/>
<path d="M133.158 36.5496L130.75 41.2496V43.5696H129.055V41.2496L126.646 36.5496H128.569L129.917 39.4896L131.255 36.5496H133.158Z" fill="white"/>
<path d="M123.879 39.9696C124.282 40.0562 124.606 40.2596 124.85 40.5796C125.095 40.8929 125.217 41.2529 125.217 41.6596C125.217 42.2462 125.012 42.7129 124.602 43.0596C124.199 43.3996 123.634 43.5696 122.907 43.5696H119.666V36.5496H122.798C123.505 36.5496 124.057 36.7129 124.454 37.0396C124.857 37.3662 125.058 37.8096 125.058 38.3696C125.058 38.7829 124.949 39.1262 124.731 39.3996C124.52 39.6729 124.236 39.8629 123.879 39.9696ZM121.361 39.3896H122.471C122.749 39.3896 122.96 39.3296 123.106 39.2096C123.258 39.0829 123.334 38.8996 123.334 38.6596C123.334 38.4196 123.258 38.2362 123.106 38.1096C122.96 37.9829 122.749 37.9196 122.471 37.9196H121.361V39.3896ZM122.61 42.1896C122.894 42.1896 123.112 42.1262 123.264 41.9996C123.423 41.8662 123.502 41.6762 123.502 41.4296C123.502 41.1829 123.42 40.9896 123.254 40.8496C123.096 40.7096 122.874 40.6396 122.59 40.6396H121.361V42.1896H122.61Z" fill="white"/>
<path d="M110.988 36.5496C111.722 36.5496 112.363 36.6962 112.911 36.9896C113.46 37.2829 113.883 37.6962 114.18 38.2296C114.484 38.7562 114.636 39.3662 114.636 40.0596C114.636 40.7462 114.484 41.3562 114.18 41.8896C113.883 42.4229 113.456 42.8362 112.901 43.1296C112.353 43.4229 111.715 43.5696 110.988 43.5696H108.381V36.5496H110.988ZM110.879 42.0896C111.52 42.0896 112.019 41.9129 112.376 41.5596C112.733 41.2062 112.911 40.7062 112.911 40.0596C112.911 39.4129 112.733 38.9096 112.376 38.5496C112.019 38.1896 111.52 38.0096 110.879 38.0096H110.076V42.0896H110.879Z" fill="white"/>
<path d="M103.722 37.9196V39.3396H105.992V40.6596H103.722V42.1996H106.29V43.5696H102.027V36.5496H106.29V37.9196H103.722Z" fill="white"/>
<path d="M98.1187 43.5696L96.6716 40.9196H96.2652V43.5696H94.5702V36.5496H97.415C97.9635 36.5496 98.4293 36.6462 98.8126 36.8396C99.2025 37.0329 99.4932 37.2996 99.6849 37.6396C99.8765 37.9729 99.9723 38.3462 99.9723 38.7596C99.9723 39.2262 99.8402 39.6429 99.5758 40.0096C99.3181 40.3762 98.9349 40.6362 98.426 40.7896L100.032 43.5696H98.1187ZM96.2652 39.7096H97.3159C97.6264 39.7096 97.8577 39.6329 98.0097 39.4796C98.1683 39.3262 98.2476 39.1096 98.2476 38.8296C98.2476 38.5629 98.1683 38.3529 98.0097 38.1996C97.8577 38.0462 97.6264 37.9696 97.3159 37.9696H96.2652V39.7096Z" fill="white"/>
<path d="M89.9113 37.9196V39.3396H92.1812V40.6596H89.9113V42.1996H92.4785V43.5696H88.2163V36.5496H92.4785V37.9196H89.9113Z" fill="white"/>
<path d="M86.375 36.5496L84.5611 43.5696H82.5093L81.3991 38.9496L80.2493 43.5696H78.1975L76.4331 36.5496H78.247L79.2482 41.6596L80.4872 36.5496H82.3507L83.5401 41.6596L84.5512 36.5496H86.375Z" fill="white"/>
<path d="M71.3072 43.6395C70.653 43.6395 70.0516 43.4861 69.5032 43.1795C68.9613 42.8728 68.5285 42.4461 68.2047 41.8995C67.8875 41.3461 67.7289 40.7261 67.7289 40.0395C67.7289 39.3528 67.8875 38.7361 68.2047 38.1895C68.5285 37.6428 68.9613 37.2161 69.5032 36.9095C70.0516 36.6028 70.653 36.4495 71.3072 36.4495C71.9614 36.4495 72.5594 36.6028 73.1013 36.9095C73.6498 37.2161 74.0793 37.6428 74.3899 38.1895C74.7071 38.7361 74.8656 39.3528 74.8656 40.0395C74.8656 40.7261 74.7071 41.3461 74.3899 41.8995C74.0727 42.4461 73.6431 42.8728 73.1013 43.1795C72.5594 43.4861 71.9614 43.6395 71.3072 43.6395ZM71.3072 42.0795C71.8623 42.0795 72.305 41.8928 72.6354 41.5195C72.9724 41.1461 73.1409 40.6528 73.1409 40.0395C73.1409 39.4195 72.9724 38.9261 72.6354 38.5595C72.305 38.1861 71.8623 37.9995 71.3072 37.9995C70.7455 37.9995 70.2961 38.1828 69.9591 38.5495C69.6287 38.9161 69.4635 39.4128 69.4635 40.0395C69.4635 40.6595 69.6287 41.1561 69.9591 41.5295C70.2961 41.8961 70.7455 42.0795 71.3072 42.0795Z" fill="white"/>
<path d="M66.1427 38.8096C66.1427 39.2162 66.0502 39.5896 65.8652 39.9296C65.6802 40.2629 65.396 40.5329 65.0127 40.7396C64.6295 40.9462 64.1537 41.0496 63.5854 41.0496H62.5347V43.5696H60.8397V36.5496H63.5854C64.1405 36.5496 64.6097 36.6462 64.9929 36.8396C65.3762 37.0329 65.6636 37.2996 65.8553 37.6396C66.0469 37.9796 66.1427 38.3696 66.1427 38.8096ZM63.4565 39.6896C63.7803 39.6896 64.0215 39.6129 64.1801 39.4596C64.3387 39.3062 64.418 39.0896 64.418 38.8096C64.418 38.5296 64.3387 38.3129 64.1801 38.1596C64.0215 38.0062 63.7803 37.9296 63.4565 37.9296H62.5347V39.6896H63.4565Z" fill="white"/>
<path d="M145.433 44L149.726 34.6702L149.158 34.6015L152.164 32L152.802 36.0595L152.243 35.6295L148.391 44H145.433Z" fill="white"/>
<path d="M140.547 44L144.925 34.4831L145.937 32.2837L147.443 35.438L143.503 44H140.547Z" fill="white"/>
<path d="M136.549 44L139.414 37.7719L140.428 35.5725L141.932 38.7268L139.506 44H136.549Z" fill="white"/>
</svg>
