<svg width="151" height="150" viewBox="0 0 151 150" fill="none" xmlns="http://www.w3.org/2000/svg">
<path d="M150.5 75C150.5 116.422 116.922 150 75.5 150C34.0785 150 0.5 116.422 0.5 75C0.5 33.5785 34.0785 0 75.5 0C116.922 0 150.5 33.5785 150.5 75Z" fill="#0C355C"/>
<path d="M75.5246 147.021V146.713C76.2885 146.713 77.0616 146.7 77.8231 146.676L77.8331 146.984C77.0685 147.008 76.2923 147.021 75.5246 147.021ZM73.2169 146.985C72.4508 146.961 71.6754 146.925 70.9116 146.876L70.9308 146.569C71.6916 146.617 72.4639 146.653 73.2269 146.677L73.2177 146.985H73.2169ZM80.1393 146.874L80.12 146.567C80.8823 146.518 81.6531 146.457 82.4116 146.385L82.4408 146.691C81.6792 146.764 80.9054 146.825 80.14 146.874H80.1393ZM68.61 146.695C67.8477 146.623 67.0754 146.537 66.3162 146.441L66.3546 146.135C67.1108 146.232 67.88 146.317 68.6392 146.389L68.61 146.695ZM84.7339 146.434L84.6946 146.128C85.4508 146.032 86.2154 145.922 86.9692 145.8L87.0177 146.104C86.2608 146.225 85.4923 146.336 84.7331 146.434H84.7339ZM64.0308 146.112C63.2746 145.992 62.51 145.856 61.7577 145.711L61.8162 145.408C62.5654 145.553 63.3269 145.688 64.0792 145.808L64.0308 146.112ZM89.2916 145.702L89.2331 145.399C89.9816 145.254 90.7385 145.095 91.4823 144.925L91.5508 145.225C90.8039 145.395 90.0439 145.555 89.2923 145.702H89.2916ZM59.4985 145.237C58.7516 145.068 57.9969 144.884 57.2562 144.69L57.3339 144.392C58.0723 144.585 58.8231 144.768 59.5669 144.937L59.4985 145.237ZM93.7923 144.677L93.7146 144.379C94.4523 144.186 95.1969 143.978 95.9285 143.762L96.0162 144.056C95.2815 144.274 94.5339 144.483 93.7931 144.677H93.7923ZM55.0323 144.07C54.2977 143.852 53.5569 143.62 52.8293 143.379L52.9262 143.087C53.65 143.327 54.3885 143.558 55.1192 143.775L55.0323 144.07ZM98.2177 143.364L98.1208 143.072C98.8446 142.832 99.5746 142.575 100.29 142.312L100.396 142.6C99.6777 142.865 98.9446 143.122 98.2177 143.363V143.364ZM50.6431 142.616C49.9223 142.351 49.1962 142.071 48.4839 141.782L48.5992 141.497C49.3085 141.784 50.0316 142.064 50.7492 142.328L50.6431 142.616ZM102.549 141.768L102.434 141.483C103.138 141.198 103.848 140.896 104.543 140.588L104.668 140.869C103.969 141.179 103.256 141.482 102.549 141.768ZM46.3531 140.878C45.6523 140.568 44.9454 140.241 44.2531 139.907L44.3869 139.63C45.0762 139.962 45.78 140.288 46.4777 140.597L46.3531 140.878ZM106.757 139.902L106.623 139.625C107.308 139.295 107.997 138.949 108.672 138.596L108.815 138.868C108.136 139.223 107.444 139.571 106.757 139.902ZM42.1862 138.869C41.5054 138.514 40.8223 138.142 40.1539 137.765L40.3054 137.498C40.97 137.873 41.6508 138.243 42.3285 138.597L42.1862 138.869ZM110.839 137.769L110.688 137.502C111.351 137.128 112.017 136.738 112.668 136.342L112.828 136.605C112.175 137.002 111.505 137.394 110.839 137.769ZM38.1592 136.597C37.5031 136.198 36.8446 135.784 36.2031 135.365L36.3716 135.108C37.01 135.525 37.6654 135.937 38.3192 136.334L38.1592 136.597ZM114.778 135.377L114.611 135.119C115.249 134.703 115.889 134.271 116.514 133.835L116.69 134.088C116.063 134.525 115.42 134.959 114.779 135.378L114.778 135.377ZM34.2885 134.072C33.66 133.632 33.03 133.177 32.4162 132.718L32.6008 132.472C33.2123 132.928 33.8392 133.382 34.4654 133.819L34.2892 134.072H34.2885ZM118.558 132.737L118.375 132.491C118.985 132.035 119.596 131.563 120.192 131.087L120.385 131.328C119.786 131.805 119.172 132.279 118.559 132.737H118.558ZM30.5885 131.305C29.9908 130.828 29.3916 130.334 28.8069 129.835L29.0062 129.602C29.5877 130.098 30.1846 130.59 30.78 131.065L30.5877 131.305H30.5885ZM122.164 129.86L121.965 129.625C122.545 129.131 123.126 128.62 123.69 128.108L123.897 128.336C123.331 128.85 122.748 129.363 122.164 129.86ZM27.0739 128.31C26.5069 127.795 25.94 127.263 25.3908 126.73L25.6046 126.509C26.1523 127.04 26.7162 127.569 27.2808 128.082L27.0739 128.31ZM125.58 126.758L125.366 126.537C125.914 126.007 126.462 125.46 126.992 124.912L127.213 125.127C126.68 125.677 126.131 126.225 125.58 126.758ZM23.7585 125.098C23.2254 124.548 22.6946 123.982 22.1792 123.415L22.4069 123.208C22.92 123.772 23.4485 124.336 23.9792 124.884L23.7585 125.098ZM128.793 123.444L128.565 123.237C129.078 122.672 129.59 122.092 130.085 121.512L130.319 121.712C129.822 122.295 129.308 122.878 128.793 123.445V123.444ZM20.6554 121.682C20.1592 121.1 19.6654 120.502 19.1877 119.903L19.4285 119.711C19.9046 120.307 20.3962 120.903 20.89 121.483L20.6562 121.682H20.6554ZM131.79 119.931L131.55 119.738C132.025 119.144 132.499 118.532 132.957 117.919L133.203 118.104C132.743 118.718 132.268 119.334 131.79 119.931ZM17.7777 118.078C17.3192 117.465 16.8646 116.836 16.4269 116.209L16.6792 116.033C17.1154 116.658 17.5677 117.283 18.0246 117.894L17.7785 118.078H17.7777ZM134.558 116.232L134.305 116.055C134.743 115.429 135.177 114.788 135.594 114.149L135.852 114.318C135.432 114.959 134.997 115.604 134.558 116.232V116.232ZM15.1362 114.298C14.7177 113.658 14.3046 113.002 13.9077 112.348L14.1708 112.188C14.5662 112.838 14.9777 113.492 15.3939 114.13L15.1362 114.298ZM137.084 112.362L136.821 112.202C137.218 111.548 137.61 110.879 137.985 110.215L138.252 110.367C137.875 111.034 137.482 111.705 137.083 112.362H137.084ZM12.7431 110.36C12.3677 109.695 11.9969 109.014 11.6431 108.336L11.9154 108.194C12.2685 108.868 12.6369 109.546 13.0108 110.209L12.7431 110.361V110.36ZM139.358 108.335L139.085 108.193C139.439 107.516 139.788 106.824 140.12 106.135L140.397 106.269C140.063 106.961 139.714 107.656 139.358 108.335ZM10.6085 106.279C10.2762 105.592 9.95079 104.888 9.64079 104.191L9.92232 104.066C10.2308 104.762 10.5554 105.462 10.8862 106.146L10.6092 106.28L10.6085 106.279ZM141.368 104.169L141.087 104.045C141.397 103.346 141.699 102.632 141.987 101.923L142.272 102.038C141.984 102.751 141.679 103.468 141.368 104.169ZM8.74079 102.072C8.45309 101.363 8.17232 100.638 7.90694 99.9192L8.1954 99.8131C8.45925 100.528 8.73848 101.25 9.0254 101.957L8.74002 102.072H8.74079ZM143.108 99.8792L142.819 99.7731C143.084 99.0546 143.34 98.3223 143.581 97.5969L143.873 97.6939C143.632 98.4223 143.374 99.1577 143.108 99.8792H143.108ZM7.14309 97.7408C6.90156 97.0139 6.66848 96.2731 6.45002 95.5392L6.7454 95.4516C6.96233 96.1823 7.19463 96.92 7.4354 97.6439L7.14309 97.7408ZM144.564 95.4916L144.268 95.4039C144.485 94.6716 144.693 93.9269 144.885 93.19L145.183 93.2677C144.989 94.0077 144.781 94.7562 144.563 95.4916H144.564ZM5.82925 93.3154C5.63463 92.5746 5.45002 91.82 5.28002 91.0731L5.58002 91.0046C5.74925 91.7485 5.93386 92.4992 6.12694 93.2369L5.82925 93.3146V93.3154ZM145.732 91.0254L145.432 90.9569C145.601 90.2123 145.76 89.4562 145.905 88.7077L146.207 88.7662C146.062 89.5177 145.902 90.2777 145.732 91.0254ZM4.80309 88.8146C4.65694 88.0631 4.52156 87.2985 4.39925 86.5416L4.70309 86.4923C4.82463 87.2454 4.95925 88.0069 5.1054 88.7554L4.80309 88.8139V88.8146ZM146.608 86.4931L146.305 86.4446C146.425 85.6923 146.535 84.9269 146.632 84.17L146.938 84.2092C146.841 84.97 146.73 85.7385 146.608 86.4939V86.4931ZM4.06925 84.2577C3.97156 83.4985 3.8854 82.7262 3.81233 81.9639L4.11848 81.9346C4.19156 82.6939 4.27771 83.4623 4.37463 84.2185L4.06925 84.2577ZM147.193 81.9146L146.887 81.8854C146.959 81.1262 147.02 80.3554 147.068 79.5939L147.375 79.6131C147.327 80.3777 147.265 81.1523 147.193 81.9139V81.9146ZM3.62771 79.6631C3.57925 78.8992 3.54156 78.1239 3.51694 77.3569L3.82463 77.3469C3.84925 78.11 3.88617 78.8823 3.93463 79.6431L3.62771 79.6631ZM147.485 77.3077L147.177 77.2977C147.201 76.5377 147.213 75.7639 147.213 74.9992V74.9023H147.521V75C147.521 75.7677 147.508 76.5446 147.485 77.3077ZM3.78694 75.0485H3.47925V75C3.47925 74.2492 3.49079 73.4892 3.51386 72.7408L3.82156 72.75C3.79848 73.4954 3.78694 74.2523 3.78694 74.9992V75.0477V75.0485ZM147.174 72.6046C147.148 71.8416 147.111 71.0685 147.062 70.3085L147.369 70.2885C147.418 71.0516 147.456 71.8277 147.482 72.5939L147.174 72.6039V72.6046ZM3.92925 70.4546L3.62233 70.4354C3.67002 69.6708 3.73079 68.8969 3.80309 68.1346L4.10925 68.1639C4.03771 68.9231 3.97694 69.6939 3.92925 70.4554V70.4546ZM146.878 68.0177C146.805 67.2577 146.718 66.4892 146.62 65.7339L146.925 65.6946C147.023 66.4531 147.11 67.2254 147.184 67.9885L146.878 68.0177ZM4.36156 65.8785L4.05617 65.84C4.15232 65.08 4.26309 64.3116 4.38386 63.5554L4.68771 63.6039C4.56771 64.3569 4.45771 65.1223 4.36156 65.8792V65.8785ZM146.289 63.4592C146.168 62.7054 146.032 61.9446 145.885 61.1962L146.188 61.1369C146.334 61.8877 146.471 62.6523 146.593 63.4092L146.289 63.4585V63.4592ZM5.08694 61.34L4.78463 61.2816C4.93002 60.5292 5.08925 59.7692 5.25848 59.0223L5.55848 59.09C5.39002 59.8339 5.23156 60.5908 5.08694 61.3392V61.34ZM145.409 58.9477C145.239 58.2054 145.055 57.4539 144.861 56.7154L145.158 56.6369C145.353 57.3785 145.538 58.1331 145.709 58.8785L145.409 58.9469V58.9477ZM6.10232 56.8569L5.80463 56.7792C5.99771 56.0377 6.20617 55.29 6.42309 54.5554L6.71848 54.6423C6.50232 55.3739 6.2954 56.1192 6.10309 56.8569H6.10232ZM144.241 54.5023C144.023 53.7723 143.791 53.0346 143.549 52.31L143.841 52.2131C144.083 52.9408 144.317 53.6816 144.535 54.4146L144.241 54.5023ZM7.40463 52.4492L7.11232 52.3523C7.35386 51.6223 7.61079 50.8869 7.8754 50.1662L8.16386 50.2723C7.90002 50.99 7.64463 51.7223 7.40386 52.4492H7.40463ZM142.788 50.1416C142.524 49.4277 142.245 48.7069 141.956 47.9985L142.242 47.8823C142.531 48.5939 142.812 49.3177 143.077 50.0346L142.788 50.1416H142.788ZM8.99463 48.1216L8.70925 48.0062C8.99694 47.2946 9.30079 46.5777 9.61156 45.8754L9.89309 46C9.58309 46.6992 9.28079 47.4131 8.99463 48.1216ZM141.058 45.8908C140.749 45.1962 140.425 44.4962 140.094 43.8116L140.371 43.6777C140.703 44.3654 141.029 45.0677 141.34 45.7662L141.059 45.8908H141.058ZM10.8592 43.9085L10.5823 43.7746C10.9154 43.0831 11.2646 42.3877 11.62 41.7077L11.8931 41.85C11.5392 42.5277 11.1916 43.22 10.86 43.9085H10.8592ZM139.062 41.7631C138.709 41.0892 138.34 40.4116 137.965 39.7485L138.233 39.5969C138.609 40.2623 138.98 40.9431 139.335 41.62L139.062 41.7631ZM12.9908 39.8269L12.7231 39.6762C13.1 39.0085 13.4923 38.3369 13.8908 37.6808L14.1539 37.8408C13.7569 38.4939 13.3662 39.1623 12.9908 39.8277V39.8269ZM136.804 37.77C136.408 37.1192 135.996 36.4662 135.579 35.8292L135.837 35.6608C136.255 36.3008 136.668 36.9569 137.066 37.61L136.803 37.77H136.804ZM15.3792 35.8923L15.1216 35.7246C15.54 35.0823 15.9746 34.4377 16.4146 33.8092L16.6669 33.9854C16.2292 34.6116 15.7962 35.2531 15.38 35.8931L15.3792 35.8923ZM134.294 33.9277C133.857 33.3031 133.404 32.6769 132.948 32.0677L133.194 31.8831C133.652 32.4954 134.107 33.1231 134.546 33.7508L134.294 33.9269V33.9277ZM18.0139 32.12L17.7677 31.9362C18.2262 31.3223 18.7016 30.7077 19.18 30.1077L19.4208 30.3C18.9446 30.8969 18.4716 31.5092 18.0146 32.1208L18.0139 32.12ZM131.542 30.2516C131.065 29.6554 130.573 29.06 130.078 28.4808L130.312 28.2808C130.808 28.8623 131.303 29.4608 131.782 30.0592L131.542 30.2516ZM20.8831 28.5254L20.6492 28.3262C21.1462 27.7431 21.6592 27.16 22.1746 26.5923L22.4023 26.7992C21.8892 27.3646 21.3785 27.9454 20.8839 28.5254H20.8831ZM128.56 26.7569C128.047 26.1931 127.518 25.6292 126.987 25.0816L127.208 24.8677C127.741 25.4177 128.272 25.9839 128.788 26.55L128.56 26.7569ZM23.9739 25.1216L23.7531 24.9077C24.2862 24.3577 24.8346 23.8085 25.3846 23.2754L25.5985 23.4962C25.0508 24.0269 24.5039 24.5739 23.9739 25.1216ZM125.361 23.4569C124.812 22.9262 124.248 22.3977 123.683 21.8846L123.89 21.6569C124.457 22.1716 125.024 22.7031 125.575 23.2354L125.361 23.4562V23.4569ZM27.2746 21.9239L27.0677 21.6962C27.6346 21.1808 28.2169 20.6677 28.7992 20.1716L28.9985 20.4054C28.4185 20.9 27.8385 21.4108 27.2739 21.9239H27.2746ZM121.956 20.3669C121.375 19.8723 120.778 19.38 120.182 18.9046L120.373 18.6639C120.972 19.1416 121.572 19.6354 122.155 20.1323L121.956 20.3669ZM30.7708 18.9431L30.5785 18.7031C31.1762 18.2254 31.79 17.7508 32.4031 17.2923L32.5877 17.5385C31.9777 17.9954 31.3662 18.4677 30.7708 18.9431ZM118.361 17.4992C117.749 17.0423 117.122 16.5892 116.495 16.1523L116.672 15.9C117.3 16.3392 117.931 16.7939 118.545 17.2523L118.361 17.4992ZM34.4477 16.1923L34.2716 15.94C34.8985 15.5016 35.5408 15.0677 36.1816 14.6492L36.35 14.9069C35.7123 15.3231 35.0723 15.7562 34.4485 16.1923H34.4477ZM114.588 14.8662C113.948 14.4492 113.292 14.0369 112.639 13.6408L112.798 13.3777C113.455 13.7754 114.112 14.1892 114.755 14.6077L114.588 14.8654V14.8662ZM38.2908 13.6839L38.1308 13.4208C38.7839 13.0239 39.4531 12.6316 40.1185 12.2554L40.27 12.5231C39.6069 12.8977 38.9416 13.2885 38.2908 13.6839ZM110.652 12.4792C109.987 12.1039 109.305 11.7346 108.628 11.3816L108.771 11.1085C109.451 11.4631 110.135 11.8346 110.803 12.2108L110.652 12.4785V12.4792ZM42.2846 11.4269L42.1416 11.1546C42.8192 10.8 43.5116 10.4516 44.1985 10.1192L44.3323 10.3962C43.6477 10.7269 42.9585 11.0739 42.2839 11.4269H42.2846ZM106.569 10.3485C105.88 10.0162 105.176 9.69156 104.478 9.38309L104.602 9.10155C105.304 9.41156 106.01 9.73771 106.703 10.0716L106.57 10.3485H106.569ZM46.4123 9.43156L46.2877 9.15002C46.9862 8.84002 47.6985 8.53694 48.4054 8.24925L48.5216 8.53463C47.8177 8.82079 47.1077 9.12232 46.4131 9.43156H46.4123ZM102.355 8.4854C101.645 8.19848 100.922 7.92002 100.205 7.65617L100.311 7.36771C101.032 7.63232 101.758 7.91232 102.471 8.20002L102.355 8.4854ZM50.6646 7.70386L50.5577 7.4154C51.2762 7.15002 52.0092 6.89309 52.7362 6.65079L52.8331 6.94309C52.1092 7.18386 51.38 7.44002 50.6639 7.70386H50.6646ZM98.0277 6.89694C97.3031 6.65771 96.5646 6.42617 95.8339 6.21079L95.9208 5.9154C96.6546 6.13232 97.3962 6.36386 98.1239 6.60463L98.0277 6.89694ZM55.0254 6.25232L54.9377 5.95771C55.6716 5.73925 56.4192 5.53002 57.1608 5.3354L57.2392 5.63309C56.5008 5.82694 55.7562 6.0354 55.0262 6.25232H55.0254ZM93.6192 5.59617C92.8816 5.40386 92.13 5.22156 91.3862 5.05309L91.4539 4.75309C92.2008 4.92233 92.9562 5.1054 93.6969 5.29848L93.6192 5.59617ZM59.4716 5.0854L59.4031 4.7854C60.15 4.61463 60.9092 4.45463 61.6616 4.30771L61.72 4.61002C60.9716 4.7554 60.2146 4.9154 59.4716 5.0854ZM89.1362 4.58232C88.3885 4.43848 87.6262 4.30463 86.8723 4.18386L86.9208 3.88002C87.6777 4.00079 88.4431 4.1354 89.1946 4.28002L89.1362 4.58232ZM63.9831 4.20694L63.9339 3.90309C64.6892 3.78079 65.4585 3.67002 66.2185 3.57156L66.2577 3.87694C65.5008 3.97463 64.7354 4.0854 63.9831 4.20694ZM84.5969 3.85848C83.8416 3.76309 83.0723 3.67771 82.3123 3.60617L82.3415 3.30002C83.1054 3.37233 83.8769 3.45694 84.6362 3.55309L84.5977 3.85848H84.5969ZM68.5415 3.62079L68.5123 3.31463C69.2739 3.24156 70.0477 3.17925 70.8131 3.13002L70.8331 3.43694C70.0708 3.48617 69.3 3.54771 68.5423 3.62079H68.5415ZM80.0216 3.42771C79.2616 3.38079 78.4892 3.34463 77.7254 3.32156L77.7346 3.01386C78.5015 3.03694 79.2777 3.07309 80.04 3.12079L80.0208 3.42771H80.0216ZM73.1285 3.3254L73.1185 3.01771C73.8823 2.99309 74.6592 2.98002 75.4269 2.97925V3.28694C74.6631 3.28771 73.8892 3.30079 73.1285 3.3254Z" fill="white"/>
<path d="M75.4999 125.482C68.6845 125.482 62.0738 124.148 55.8499 121.515C49.8384 118.973 44.4399 115.332 39.803 110.696C35.1668 106.06 31.5268 100.661 28.9838 94.6492C26.3515 88.4261 25.0168 81.8146 25.0168 74.9992C25.0168 68.1838 26.3515 61.5723 28.9838 55.3492C31.5261 49.3376 35.1661 43.9392 39.803 39.3023C44.4392 34.6661 49.8384 31.0261 55.8499 28.483C62.073 25.8507 68.6845 24.5161 75.4999 24.5161C82.3153 24.5161 88.9268 25.8507 95.1499 28.483C101.161 31.0253 106.56 34.6653 111.197 39.3023C115.833 43.9384 119.473 49.3376 122.016 55.3492C124.648 61.5723 125.983 68.1838 125.983 74.9992C125.983 81.8146 124.648 88.4253 122.016 94.6492C119.474 100.661 115.834 106.059 111.197 110.696C106.561 115.332 101.161 118.972 95.1499 121.515C88.9268 124.148 82.3153 125.482 75.4999 125.482Z" fill="#0197F6"/>
<path d="M75.5 25.07C82.2408 25.07 88.78 26.39 94.9346 28.9931C97.8931 30.2446 100.746 31.7931 103.415 33.5961C106.059 35.3823 108.546 37.4338 110.805 39.6938C113.065 41.9538 115.117 44.44 116.903 47.0838C118.706 49.7531 120.255 52.6061 121.506 55.5646C124.109 61.7192 125.429 68.2584 125.429 74.9992C125.429 81.74 124.109 88.2792 121.506 94.4338C120.255 97.3923 118.706 100.245 116.903 102.915C115.117 105.558 113.065 108.045 110.805 110.305C108.545 112.565 106.059 114.615 103.415 116.402C100.746 118.205 97.8931 119.755 94.9346 121.005C88.78 123.608 82.2408 124.928 75.5 124.928C68.7592 124.928 62.22 123.608 56.0654 121.005C53.1069 119.754 50.2538 118.205 47.5846 116.402C44.9408 114.616 42.4538 112.565 40.1946 110.305C37.9346 108.045 35.8831 105.558 34.0969 102.915C32.2938 100.245 30.7446 97.3923 29.4938 94.4338C26.8908 88.2792 25.5708 81.74 25.5708 74.9992C25.5708 68.2584 26.8908 61.7192 29.4938 55.5646C30.7454 52.6061 32.2938 49.7531 34.0969 47.0838C35.8831 44.44 37.9346 41.9531 40.1946 39.6938C42.4546 37.4338 44.9408 35.3823 47.5846 33.5961C50.2538 31.7931 53.1069 30.2438 56.0654 28.9931C62.22 26.39 68.7592 25.07 75.5 25.07ZM75.5 23.9646C47.3138 23.9646 24.4646 46.8138 24.4646 75C24.4646 103.186 47.3138 126.035 75.5 126.035C103.686 126.035 126.535 103.186 126.535 75C126.535 46.8138 103.686 23.9646 75.5 23.9646Z" fill="#0D3B66"/>
<path d="M119.206 110.961L120.338 109.381L127.586 109.919L122.541 106.305L123.673 104.725L131.341 110.218L130.209 111.798L122.946 111.257L128.002 114.879L126.874 116.454L119.206 110.961Z" fill="white"/>
<path d="M115.052 121.575C114.405 120.908 113.956 120.209 113.705 119.478C113.454 118.748 113.415 118.033 113.59 117.335C113.765 116.636 114.135 116.012 114.703 115.462C115.265 114.918 115.896 114.568 116.598 114.411C117.299 114.254 118.014 114.308 118.742 114.575C119.469 114.841 120.15 115.298 120.784 115.946L121.108 116.281C121.755 116.948 122.203 117.651 122.455 118.391C122.706 119.131 122.743 119.849 122.568 120.546C122.392 121.243 122.022 121.865 121.458 122.412C120.893 122.958 120.26 123.309 119.558 123.463C118.857 123.617 118.14 123.557 117.408 123.283C116.676 123.009 115.988 122.54 115.345 121.876L115.052 121.574L115.052 121.575ZM116.763 120.511C117.452 121.221 118.102 121.637 118.714 121.76C119.326 121.882 119.868 121.715 120.339 121.258C120.808 120.805 120.992 120.272 120.893 119.662C120.794 119.051 120.405 118.392 119.726 117.685L119.406 117.355C118.736 116.663 118.088 116.25 117.465 116.115C116.841 115.98 116.29 116.144 115.812 116.607C115.344 117.061 115.162 117.593 115.268 118.204C115.372 118.815 115.765 119.474 116.444 120.181L116.764 120.511H116.763Z" fill="white"/>
<path d="M99.7561 126.151L101.451 125.2L103.429 128.725L106.734 126.871L104.755 123.345L106.451 122.394L111.067 130.62L109.372 131.571L107.501 128.238L104.197 130.093L106.068 133.426L104.372 134.377L99.7561 126.151Z" fill="white"/>
<path d="M97.1057 127.193L95.2974 127.906L98.7574 136.681L100.566 135.968L97.1057 127.193Z" fill="white"/>
<path d="M92.6462 128.93L94.9408 138.079L92.1254 138.785C91.3208 138.987 90.5562 138.986 89.8308 138.783C89.1054 138.58 88.4808 138.188 87.9569 137.61C87.4331 137.031 87.0646 136.316 86.8515 135.466L86.7462 135.045C86.5331 134.195 86.5185 133.395 86.7015 132.645C86.8854 131.895 87.25 131.259 87.7954 130.735C88.3408 130.211 89.0131 129.846 89.8123 129.641L92.6462 128.93ZM92.6731 137.025L91.1415 130.918L90.2308 131.146C89.4939 131.331 88.9908 131.713 88.7215 132.293C88.4531 132.872 88.4269 133.611 88.6431 134.51L88.7646 134.994C88.9977 135.924 89.3677 136.58 89.8731 136.963C90.3792 137.346 91.0023 137.445 91.7439 137.258L92.6739 137.025H92.6731Z" fill="white"/>
<path d="M83.3109 131.039L84.0278 140.445L81.134 140.665C80.3071 140.729 79.5532 140.599 78.8724 140.275C78.1917 139.952 77.6417 139.462 77.224 138.803C76.8055 138.144 76.5632 137.378 76.4963 136.503L76.4632 136.07C76.3963 135.195 76.5171 134.405 76.8247 133.697C77.1324 132.989 77.5994 132.423 78.2255 131.999C78.8517 131.574 79.5755 131.329 80.3978 131.262L83.3109 131.039ZM81.9701 139.022L81.4917 132.744L80.5547 132.815C79.7971 132.873 79.2363 133.165 78.874 133.691C78.5109 134.216 78.3609 134.941 78.4224 135.863L78.4601 136.361C78.5332 137.317 78.7863 138.026 79.2201 138.489C79.654 138.952 80.2517 139.155 81.014 139.096L81.9701 139.023V139.022Z" fill="white"/>
<path d="M67.7407 135.14L71.4599 135.443L71.6661 132.912L67.3015 132.556L67.4284 131L73.7299 131.514L72.9638 140.915L66.6746 140.402L66.803 138.834L71.1546 139.188L71.3376 136.948L67.6184 136.645L67.7407 135.14Z" fill="white"/>
<path d="M57.9116 128.812L59.7954 129.288L61.9431 136.232L63.4639 130.215L65.3478 130.691L63.037 139.836L61.1531 139.36L59.0024 132.402L57.4785 138.431L55.6008 137.957L57.9116 128.812Z" fill="white"/>
<path d="M44.5015 126.838L47.7907 128.602L49.6115 125.204L51.3246 126.122L46.8684 134.436L41.4553 131.535L42.1992 130.147L45.8992 132.13L47.0499 129.983L43.7607 128.221L44.5015 126.838Z" fill="white"/>
<path d="M37.1332 121.952L40.1271 124.18L41.6432 122.143L38.1301 119.528L39.0625 118.275L44.134 122.051L38.5025 129.618L33.4409 125.85L34.3809 124.587L37.8832 127.194L39.2255 125.391L36.2325 123.163L37.1332 121.952Z" fill="white"/>
<path d="M30.5662 115.709L33.1962 118.357L34.9977 116.567L31.9116 113.46L33.0185 112.36L37.4746 116.845L30.7831 123.493L26.3362 119.017L27.4531 117.907L30.53 121.005L32.1254 119.421L29.4954 116.773L30.5662 115.709Z" fill="white"/>
<path d="M26.7785 108.224C26.4816 108.439 26.3293 108.709 26.3223 109.035C26.3154 109.36 26.4216 109.859 26.64 110.532C26.8593 111.205 26.9985 111.764 27.0577 112.206C27.2177 113.413 26.9016 114.304 26.1077 114.88C25.6954 115.179 25.2431 115.33 24.7508 115.332C24.2585 115.334 23.7639 115.183 23.267 114.879C22.7693 114.575 22.3247 114.153 21.9316 113.611C21.5362 113.065 21.2823 112.508 21.1708 111.938C21.0593 111.368 21.0977 110.835 21.287 110.337C21.4762 109.84 21.7993 109.425 22.2577 109.093L23.3985 110.667C23.0493 110.92 22.857 111.228 22.8223 111.588C22.7877 111.949 22.9154 112.329 23.2047 112.728C23.4839 113.112 23.7816 113.352 24.0985 113.448C24.4154 113.543 24.707 113.495 24.9731 113.302C25.2216 113.122 25.3385 112.846 25.3254 112.474C25.3123 112.102 25.2023 111.62 24.997 111.028C24.617 109.938 24.4785 109.043 24.58 108.345C24.6823 107.647 25.03 107.083 25.6247 106.652C26.2854 106.172 26.9854 106.047 27.7239 106.274C28.4623 106.502 29.1385 107.038 29.7516 107.885C30.1777 108.472 30.4577 109.085 30.5923 109.723C30.727 110.362 30.6993 110.943 30.5093 111.468C30.3193 111.992 29.977 112.434 29.4839 112.791L28.3393 111.212C29.1816 110.602 29.2385 109.792 28.5077 108.785C28.2362 108.412 27.9485 108.175 27.6447 108.075C27.3408 107.975 27.0523 108.024 26.7793 108.222L26.7785 108.224Z" fill="white"/>
<path d="M31.7938 39.0392L30.6623 40.6192L23.4138 40.0808L28.4592 43.6946L27.3269 45.2746L19.6592 39.7815L20.7907 38.2015L28.0538 38.7423L22.9976 35.1208L24.1261 33.5461L31.7938 39.0392Z" fill="white"/>
<path d="M35.9484 28.4254C36.5945 29.0923 37.043 29.7908 37.2945 30.5215C37.5461 31.2523 37.5845 31.9669 37.4099 32.6654C37.2353 33.3638 36.8645 33.9877 36.2968 34.5377C35.7353 35.0815 35.1038 35.4323 34.4022 35.5892C33.7007 35.7461 32.9861 35.6915 32.2584 35.4254C31.5315 35.1592 30.8499 34.7015 30.2161 34.0531L29.8915 33.7184C29.2453 33.0515 28.7968 32.3484 28.5453 31.6084C28.2938 30.8684 28.2568 30.15 28.4322 29.4531C28.6084 28.7561 28.9784 28.1346 29.5422 27.5877C30.1068 27.0408 30.7399 26.69 31.4415 26.5361C32.143 26.3823 32.8599 26.4423 33.5922 26.7161C34.3238 26.99 35.0115 27.4592 35.6545 28.1231L35.9476 28.4254H35.9484ZM34.2368 29.4892C33.5484 28.7792 32.8984 28.3631 32.2861 28.24C31.6738 28.1177 31.1322 28.2846 30.6607 28.7415C30.1922 29.1954 30.0076 29.7277 30.1068 30.3384C30.2061 30.9492 30.5945 31.6084 31.2738 32.3154L31.5938 32.6454C32.2638 33.3369 32.9115 33.75 33.5353 33.8854C34.1592 34.02 34.7099 33.8561 35.1876 33.3938C35.6561 32.94 35.8376 32.4077 35.7322 31.7961C35.6276 31.1854 35.2353 30.5261 34.5561 29.8192L34.2361 29.4892H34.2368Z" fill="white"/>
<path d="M51.2439 23.8484L49.5493 24.8L47.5708 21.2746L44.2662 23.1292L46.2446 26.6546L44.5493 27.6061L39.9331 19.38L41.6277 18.4292L43.4985 21.7623L46.8031 19.9077L44.9323 16.5738L46.6277 15.623L51.2439 23.8484Z" fill="white"/>
<path d="M52.2444 13.3131L50.436 14.0261L53.8961 22.8009L55.7044 22.0878L52.2444 13.3131Z" fill="white"/>
<path d="M58.3537 21.0699L56.0591 11.9207L58.8745 11.2145C59.6791 11.013 60.4437 11.0138 61.1691 11.2169C61.8945 11.4199 62.5191 11.8115 63.0429 12.3899C63.5668 12.9692 63.9352 13.6838 64.1483 14.5338L64.2537 14.9545C64.4668 15.8053 64.4814 16.6053 64.2983 17.3545C64.1145 18.1045 63.7498 18.7407 63.2045 19.2653C62.6591 19.7892 61.9868 20.1538 61.1875 20.3592L58.3537 21.0699ZM58.3268 12.9745L59.8583 19.0822L60.7691 18.8538C61.506 18.6692 62.0091 18.2869 62.2783 17.7069C62.5468 17.1276 62.5729 16.3884 62.3568 15.4899L62.2352 15.0061C62.0022 14.0761 61.6322 13.4199 61.1268 13.0369C60.6214 12.6538 59.9975 12.5553 59.256 12.7415L58.326 12.9745H58.3268Z" fill="white"/>
<path d="M67.6891 18.9607L66.9722 9.55532L69.866 9.33455C70.6929 9.27147 71.4468 9.40147 72.1275 9.72455C72.8083 10.0476 73.3583 10.5384 73.776 11.1969C74.1945 11.8561 74.4368 12.6222 74.5037 13.4969L74.5368 13.9299C74.6037 14.8045 74.4829 15.5953 74.1752 16.303C73.8676 17.0107 73.4006 17.5769 72.7745 18.0015C72.1483 18.4261 71.4245 18.6715 70.6022 18.7384L67.6891 18.9607ZM69.0299 10.9776L69.5083 17.2561L70.4452 17.1845C71.2029 17.1269 71.7637 16.8353 72.126 16.3092C72.4891 15.7838 72.6391 15.0592 72.5776 14.1369L72.5399 13.6392C72.4668 12.683 72.2137 11.9738 71.7799 11.5107C71.346 11.0476 70.7483 10.8453 69.986 10.9038L69.0299 10.9769V10.9776Z" fill="white"/>
<path d="M83.2592 14.8601L79.54 14.557L79.3339 17.0878L83.6985 17.4439L83.5716 19.0001L77.27 18.4863L78.0362 9.08472L84.3254 9.59779L84.1977 11.1663L79.8454 10.8116L79.6631 13.0524L83.3823 13.3555L83.2592 14.8601Z" fill="white"/>
<path d="M93.0885 21.1877L91.2047 20.7115L89.057 13.7677L87.5362 19.7846L85.6523 19.3084L87.9631 10.1638L89.847 10.64L91.9977 17.5977L93.5216 11.5684L95.3993 12.043L93.0885 21.1877Z" fill="white"/>
<path d="M106.498 23.1617L103.209 21.3986L101.388 24.7963L99.6753 23.8778L104.131 15.564L109.545 18.4655L108.801 19.8532L105.101 17.8701L103.95 20.017L107.239 21.7793L106.498 23.1617Z" fill="white"/>
<path d="M113.867 28.0477L110.874 25.82L109.357 27.8569L112.87 30.4723L111.938 31.7246L106.866 27.9492L112.498 20.3823L117.56 24.15L116.62 25.4131L113.117 22.8062L111.775 24.6092L114.769 26.8369L113.867 28.0477Z" fill="white"/>
<path d="M120.435 34.2917L117.805 31.644L116.003 33.434L119.09 36.5409L117.982 37.6417L113.526 33.1555L120.218 26.5078L124.665 30.9847L123.548 32.094L120.471 28.9963L118.876 30.5801L121.506 33.2278L120.435 34.2917Z" fill="white"/>
<path d="M124.222 41.7769C124.518 41.5615 124.671 41.2915 124.678 40.9661C124.685 40.6408 124.578 40.1415 124.36 39.4684C124.141 38.7954 124.002 38.2369 123.942 37.7946C123.782 36.5877 124.098 35.6969 124.892 35.1208C125.305 34.8215 125.757 34.6708 126.249 34.6692C126.742 34.6669 127.236 34.8177 127.733 35.1215C128.231 35.4254 128.675 35.8477 129.068 36.39C129.464 36.9354 129.718 37.4931 129.829 38.0631C129.941 38.6331 129.902 39.1661 129.713 39.6638C129.524 40.1608 129.201 40.5754 128.742 40.9077L127.602 39.3346C127.951 39.0808 128.143 38.7738 128.178 38.4131C128.212 38.0523 128.085 37.6723 127.795 37.2738C127.517 36.8892 127.218 36.6492 126.902 36.5538C126.585 36.4584 126.293 36.5069 126.027 36.7C125.778 36.88 125.662 37.1561 125.675 37.5277C125.688 37.8992 125.798 38.3815 126.003 38.9738C126.383 40.0638 126.522 40.9584 126.42 41.6561C126.318 42.3546 125.97 42.9192 125.375 43.35C124.715 43.8292 124.015 43.9554 123.276 43.7277C122.538 43.5 121.862 42.9631 121.248 42.1169C120.822 41.5292 120.542 40.9169 120.408 40.2784C120.273 39.64 120.301 39.0584 120.491 38.5338C120.681 38.0092 121.023 37.5677 121.516 37.2108L122.661 38.7892C121.818 39.4 121.762 40.2092 122.492 41.2161C122.764 41.59 123.052 41.8269 123.355 41.9269C123.659 42.0261 123.948 41.9769 124.221 41.7792L124.222 41.7769Z" fill="white"/>
<path d="M10.4861 63.5361L13.7038 62.5969L14.7545 59.4146L16.6422 62.1846L19.9938 62.1999L17.943 64.8507L18.9638 68.0438L15.8084 66.9122L13.0876 68.8699L13.1884 65.5192L10.4861 63.5361Z" fill="#0197F6"/>
<path d="M10.4861 86.4637L13.1884 84.4807L13.0876 81.1299L15.8084 83.0876L18.9638 81.956L17.943 85.1491L19.9938 87.7999L16.6422 87.8153L14.7545 90.586L13.7038 87.4022L10.4861 86.4637Z" fill="#0197F6"/>
<path d="M140.514 86.4637L137.296 87.4022L136.245 90.586L134.358 87.8153L131.006 87.7999L133.057 85.1491L132.036 81.956L135.191 83.0876L137.912 81.1299L137.811 84.4807L140.514 86.4637Z" fill="#0197F6"/>
<path d="M140.514 63.5361L137.811 65.5192L137.912 68.8699L135.191 66.9122L132.036 68.0438L133.057 64.8507L131.006 62.1999L134.358 62.1846L136.245 59.4146L137.296 62.5969L140.514 63.5361Z" fill="#0197F6"/>
<path d="M54.3977 51.9346C60.1616 46.64 67.8446 43.4054 76.2692 43.4054C94.1146 43.4054 108.633 57.9239 108.633 75.7692C108.633 84.1939 105.398 91.8769 100.104 97.6408L101.345 98.8823L98.9223 101.305L97.6569 100.04C91.95 105.075 84.46 108.134 76.2692 108.134C58.4239 108.134 43.9054 93.6154 43.9054 75.77C43.9054 67.5792 46.9639 60.0892 51.9992 54.3823L50.7339 53.1169L53.1569 50.6939L54.3985 51.9354M76.2692 39.9792C71.4385 39.9792 66.7508 40.9254 62.3377 42.7923C58.0754 44.5954 54.2485 47.1754 50.9616 50.4616C47.6754 53.7477 45.0946 57.5754 43.2923 61.8377C41.4254 66.2516 40.4792 70.9385 40.4792 75.7692C40.4792 80.6 41.4254 85.2877 43.2923 89.7008C45.0954 93.9631 47.6754 97.79 50.9616 101.076C54.2477 104.362 58.0754 106.943 62.3377 108.745C66.7516 110.612 71.4385 111.558 76.2692 111.558C81.1 111.558 85.7877 110.612 90.2008 108.745C94.4631 106.943 98.29 104.362 101.577 101.076C104.863 97.79 107.444 93.9623 109.246 89.7008C111.113 85.2869 112.059 80.6 112.059 75.7692C112.059 70.9385 111.113 66.2508 109.246 61.8377C107.444 57.5754 104.863 53.7485 101.577 50.4623C98.2908 47.1762 94.4631 44.5954 90.2008 42.7931C85.7877 40.9262 81.1 39.98 76.2692 39.98" fill="#0D3B66"/>
<path d="M78.6192 52.8738H75.0285V58.1515C72.3446 58.473 70.2362 59.4769 68.7016 61.1646C67.1669 62.8515 66.4 65.0122 66.4 67.6476C66.4 70.283 67.1831 72.3676 68.75 74.0461C70.3169 75.7253 72.8108 77.0869 76.2331 78.1315C78.6916 78.9507 80.4385 79.8669 81.4746 80.8792C82.5108 81.8915 83.0292 83.1369 83.0292 84.6145C83.0292 86.3661 82.4269 87.7476 81.2216 88.7599C80.0162 89.7722 78.3616 90.2784 76.2569 90.2784C74.1523 90.2784 72.4408 89.6761 71.2685 88.4707C70.0954 87.2653 69.5092 85.5469 69.5092 83.313H65.0508C65.0508 86.4945 65.8977 89.013 67.5931 90.8684C69.2877 92.7246 71.63 93.7884 74.6185 94.0622V98.6653H78.1854V94.0622C81.1262 93.7569 83.4108 92.7769 85.0423 91.1215C86.6731 89.4669 87.4885 87.2815 87.4885 84.5661C87.4885 82.863 87.1631 81.3769 86.5123 80.1076C85.8616 78.8392 84.8492 77.7261 83.4754 76.7699C82.1016 75.8146 80.1892 74.9376 77.7392 74.1415C75.2892 73.3446 73.53 72.4592 72.4616 71.4853C71.3931 70.5115 70.8592 69.2038 70.8592 67.5622C70.8592 65.7915 71.3654 64.4115 72.3777 63.4215C73.39 62.4315 74.8516 61.9369 76.7639 61.9369C78.6762 61.9369 80.05 62.6061 81.1262 63.9438C82.2023 65.2815 82.7408 67.0869 82.7408 69.3599H87.1754C87.1754 66.0661 86.4239 63.4715 84.9223 61.5753C83.42 59.6799 81.3192 58.5469 78.62 58.1776V52.8753" fill="#0D3B66"/>
<path d="M91.3362 88.873L88.9131 91.2961L97.6569 100.039L98.9223 101.305L101.345 98.8823L100.104 97.6407L91.3362 88.873Z" fill="#0D3B66"/>
<path d="M53.1562 50.6931L50.7332 53.1162L51.9993 54.3816L60.7424 63.1254L63.1655 60.7023L54.3978 51.9347L53.1562 50.6931Z" fill="#0D3B66"/>
<path d="M75.5 110.79C70.6692 110.79 65.9815 109.844 61.5684 107.977C57.3061 106.175 53.4792 103.594 50.1923 100.308C46.9053 97.0215 44.3253 93.1938 42.523 88.9322C40.6561 84.5184 39.71 79.8315 39.71 75.0007C39.71 70.1699 40.6561 65.4822 42.523 61.0692C44.3261 56.8068 46.9061 52.9799 50.1923 49.693C53.4784 46.4068 57.3061 43.8261 61.5684 42.0238C65.9823 40.1568 70.6692 39.2107 75.5 39.2107C80.3307 39.2107 85.0184 40.1568 89.4315 42.0238C93.6938 43.8261 97.5207 46.4068 100.808 49.693C104.094 52.9792 106.675 56.8068 108.477 61.0684C110.344 65.4822 111.29 70.1692 111.29 74.9999C111.29 79.8307 110.344 84.5184 108.477 88.9315C106.674 93.1938 104.094 97.0207 100.808 100.307C97.5215 103.593 93.6938 106.174 89.4315 107.976C85.0177 109.843 80.3307 110.789 75.5 110.789V110.79ZM75.5 42.6361C57.6546 42.6361 43.1361 57.1545 43.1361 74.9999C43.1361 92.8453 57.6546 107.364 75.5 107.364C93.3453 107.364 107.864 92.8453 107.864 74.9999C107.864 57.1545 93.3453 42.6361 75.5 42.6361Z" fill="white"/>
<path d="M82.26 83.8446C82.26 82.3661 81.7423 81.1215 80.7054 80.1092C79.6693 79.0969 77.9216 78.1815 75.4631 77.3615C72.0408 76.3176 69.5462 74.9553 67.98 73.2761C66.4139 71.5976 65.63 69.4646 65.63 66.8776C65.63 64.2907 66.397 62.0815 67.9316 60.3946C69.4662 58.7076 71.5746 57.7038 74.2577 57.3815V52.103H77.8485V57.4053C80.5477 57.7753 82.6485 58.9076 84.1508 60.803C85.6531 62.6992 86.4039 65.2938 86.4039 68.5876H81.9693C81.9693 66.3146 81.4308 64.5099 80.3546 63.1715C79.2777 61.8338 77.8239 61.1646 75.9923 61.1646C74.1608 61.1646 72.6185 61.6599 71.6062 62.6492C70.5939 63.6392 70.0877 65.0192 70.0877 66.79C70.0877 68.4315 70.6216 69.7392 71.69 70.713C72.7585 71.6869 74.5177 72.5723 76.9685 73.3692C79.4185 74.1661 81.3308 75.0423 82.7046 75.9976C84.0785 76.9538 85.0908 78.0669 85.7416 79.3353C86.3923 80.6046 86.7177 82.0915 86.7177 83.7938C86.7177 86.5092 85.9023 88.6946 84.2716 90.3492C82.6408 92.0046 80.3554 92.9846 77.4146 93.29V97.893H73.8477V93.29C70.8593 93.0169 68.517 91.9523 66.8223 90.0961C65.127 88.2407 64.28 85.7223 64.28 82.5407H68.7385C68.7385 84.7746 69.3246 86.493 70.4977 87.6984C71.67 88.9038 73.3331 89.5061 75.4862 89.5061C77.6393 89.5061 79.2462 88.9999 80.4508 87.9876C81.6562 86.9753 82.2585 85.5938 82.2585 83.8423L82.26 83.8446Z" fill="white"/>
<path d="M90.5669 88.104L88.1443 90.5266L98.1537 100.536L100.576 98.1133L90.5669 88.104Z" fill="white"/>
<path d="M52.387 49.9238L49.9644 52.3464L59.9737 62.3558L62.3964 59.9332L52.387 49.9238Z" fill="white"/>
</svg>
