<svg width="16" height="16" viewBox="0 0 16 16" fill="none" xmlns="http://www.w3.org/2000/svg">
<g id="open">
<path id="Line 8 (Stroke)" fill-rule="evenodd" clip-rule="evenodd" d="M2.69688 2.69668C3.02231 2.37124 3.56547 2.38676 3.91005 2.73134L13.2688 12.0901C13.6134 12.4347 13.6289 12.9778 13.3035 13.3033C12.978 13.6287 12.4349 13.6132 12.0903 13.2686L2.73154 3.90985C2.38696 3.56527 2.37144 3.02211 2.69688 2.69668Z" fill="#0C355C"/>
<path id="Line 9 (Stroke)" fill-rule="evenodd" clip-rule="evenodd" d="M2.69668 13.3032C2.37124 12.9778 2.38676 12.4347 2.73134 12.0901L12.0901 2.73131C12.4347 2.38672 12.9778 2.37121 13.3033 2.69664C13.6287 3.02208 13.6132 3.56524 13.2686 3.90982L3.90985 13.2686C3.56527 13.6132 3.02211 13.6287 2.69668 13.3032Z" fill="#0C355C"/>
</g>
</svg>
