<svg width="34" height="34" viewBox="0 0 34 34" fill="none" xmlns="http://www.w3.org/2000/svg">
<rect width="34" height="34" rx="5" fill="#0197F6"/>
<path d="M23.8308 20.9556C23.8308 20.9556 22.2612 19.0559 21.5477 18.6065C20.8343 18.1572 20.3043 18.7292 20.3043 18.7292L18.2456 20.8127C14.6987 19.0968 13.1225 15.7196 13.1225 15.7196C13.1225 15.7196 14.6444 14.3102 15.1947 13.5952C15.7451 12.8804 15.249 12.2743 15.249 12.2743C15.249 12.2743 13.6387 10.7016 13.1155 10.2386C12.5924 9.77536 11.8856 10.1294 11.8856 10.1294C10.316 11.1302 10 13.3977 10 13.3977C11.2536 20.5676 19.1016 24.0605 20.3042 23.9992C21.5069 23.9379 22.73 23.2026 23.5453 22.4468C24.3607 21.691 23.8307 20.9556 23.8307 20.9556L23.8308 20.9556Z" fill="white"/>
</svg>
