<svg width="88" height="17" viewBox="0 0 88 17" fill="none" xmlns="http://www.w3.org/2000/svg">
<g clip-path="url(#clip0_2516_2637)">
<g clip-path="url(#clip1_2516_2637)">
<path d="M7.53834 2.00999C7.70914 1.59934 8.29086 1.59934 8.46166 2.00999L9.99874 5.70558C10.0707 5.8787 10.2336 5.99698 10.4204 6.01197L14.4102 6.33182C14.8535 6.36736 15.0332 6.92062 14.6955 7.20995L11.6557 9.81381C11.5133 9.93578 11.4512 10.1272 11.4947 10.3095L12.4234 14.2028C12.5265 14.6354 12.0559 14.9774 11.6764 14.7455L8.26063 12.6592C8.10062 12.5615 7.89938 12.5615 7.73937 12.6592L4.32363 14.7455C3.94408 14.9774 3.47345 14.6354 3.57665 14.2028L4.50534 10.3095C4.54884 10.1272 4.48665 9.93578 4.34426 9.81381L1.30453 7.20995C0.966758 6.92062 1.14652 6.36736 1.58985 6.33182L5.57955 6.01197C5.76645 5.99698 5.92925 5.8787 6.00126 5.70558L7.53834 2.00999Z" fill="#F16E00"/>
</g>
<g clip-path="url(#clip2_2516_2637)">
<path d="M25.5383 2.00999C25.7091 1.59934 26.2909 1.59934 26.4617 2.00999L27.9987 5.70558C28.0707 5.8787 28.2336 5.99698 28.4204 6.01197L32.4102 6.33182C32.8535 6.36736 33.0332 6.92062 32.6955 7.20995L29.6557 9.81381C29.5133 9.93578 29.4512 10.1272 29.4947 10.3095L30.4234 14.2028C30.5265 14.6354 30.0559 14.9774 29.6764 14.7455L26.2606 12.6592C26.1006 12.5615 25.8994 12.5615 25.7394 12.6592L22.3236 14.7455C21.9441 14.9774 21.4735 14.6354 21.5766 14.2028L22.5053 10.3095C22.5488 10.1272 22.4867 9.93578 22.3443 9.81381L19.3045 7.20995C18.9668 6.92062 19.1465 6.36736 19.5898 6.33182L23.5796 6.01197C23.7664 5.99698 23.9293 5.8787 24.0013 5.70558L25.5383 2.00999Z" fill="#F16E00"/>
</g>
<g clip-path="url(#clip3_2516_2637)">
<path d="M43.5383 2.00999C43.7091 1.59934 44.2909 1.59934 44.4617 2.00999L45.9987 5.70558C46.0707 5.8787 46.2336 5.99698 46.4204 6.01197L50.4102 6.33182C50.8535 6.36736 51.0332 6.92062 50.6955 7.20995L47.6557 9.81381C47.5133 9.93578 47.4512 10.1272 47.4947 10.3095L48.4234 14.2028C48.5265 14.6354 48.0559 14.9774 47.6764 14.7455L44.2606 12.6592C44.1006 12.5615 43.8994 12.5615 43.7394 12.6592L40.3236 14.7455C39.9441 14.9774 39.4735 14.6354 39.5766 14.2028L40.5053 10.3095C40.5488 10.1272 40.4867 9.93578 40.3443 9.81381L37.3045 7.20995C36.9668 6.92062 37.1465 6.36736 37.5898 6.33182L41.5796 6.01197C41.7664 5.99698 41.9293 5.8787 42.0013 5.70558L43.5383 2.00999Z" fill="#F16E00"/>
</g>
<g clip-path="url(#clip4_2516_2637)">
<path d="M61.5383 2.00999C61.7091 1.59934 62.2909 1.59934 62.4617 2.00999L63.9987 5.70558C64.0707 5.8787 64.2336 5.99698 64.4204 6.01197L68.4102 6.33182C68.8535 6.36736 69.0332 6.92062 68.6955 7.20995L65.6557 9.81381C65.5133 9.93578 65.4512 10.1272 65.4947 10.3095L66.4234 14.2028C66.5265 14.6354 66.0559 14.9774 65.6764 14.7455L62.2606 12.6592C62.1006 12.5615 61.8994 12.5615 61.7394 12.6592L58.3236 14.7455C57.9441 14.9774 57.4735 14.6354 57.5766 14.2028L58.5053 10.3095C58.5488 10.1272 58.4867 9.93578 58.3443 9.81381L55.3045 7.20995C54.9668 6.92062 55.1465 6.36736 55.5898 6.33182L59.5796 6.01197C59.7664 5.99698 59.9293 5.8787 60.0013 5.70558L61.5383 2.00999Z" fill="#F16E00"/>
</g>
<g clip-path="url(#clip5_2516_2637)">
<path d="M79.5383 2.00999C79.7091 1.59934 80.2909 1.59934 80.4617 2.00999L81.9987 5.70558C82.0707 5.8787 82.2336 5.99698 82.4204 6.01197L86.4102 6.33182C86.8535 6.36736 87.0332 6.92062 86.6955 7.20995L83.6557 9.81381C83.5133 9.93578 83.4512 10.1272 83.4947 10.3095L84.4234 14.2028C84.5265 14.6354 84.0559 14.9774 83.6764 14.7455L80.2606 12.6592C80.1006 12.5615 79.8994 12.5615 79.7394 12.6592L76.3236 14.7455C75.9441 14.9774 75.4735 14.6354 75.5766 14.2028L76.5053 10.3095C76.5488 10.1272 76.4867 9.93578 76.3443 9.81381L73.3045 7.20995C72.9668 6.92062 73.1465 6.36736 73.5898 6.33182L77.5796 6.01197C77.7664 5.99698 77.9293 5.8787 78.0013 5.70558L79.5383 2.00999Z" fill="#F16E00"/>
</g>
</g>
<defs>
<clipPath id="clip0_2516_2637">
<rect width="88" height="16" fill="white" transform="translate(0 0.5)"/>
</clipPath>
<clipPath id="clip1_2516_2637">
<rect width="16" height="16" fill="white" transform="translate(0 0.5)"/>
</clipPath>
<clipPath id="clip2_2516_2637">
<rect width="16" height="16" fill="white" transform="translate(18 0.5)"/>
</clipPath>
<clipPath id="clip3_2516_2637">
<rect width="16" height="16" fill="white" transform="translate(36 0.5)"/>
</clipPath>
<clipPath id="clip4_2516_2637">
<rect width="16" height="16" fill="white" transform="translate(54 0.5)"/>
</clipPath>
<clipPath id="clip5_2516_2637">
<rect width="16" height="16" fill="white" transform="translate(72 0.5)"/>
</clipPath>
</defs>
</svg>
