<svg width="40" height="40" viewBox="0 0 40 40" fill="none" xmlns="http://www.w3.org/2000/svg">
<circle cx="20" cy="20" r="20" fill="white"/>
<path d="M19.9999 14.7983C17.1773 14.7983 14.8386 17.0967 14.8386 19.9596C14.8386 22.8225 17.137 25.1209 19.9999 25.1209C22.8628 25.1209 25.1612 22.7822 25.1612 19.9596C25.1612 17.137 22.8225 14.7983 19.9999 14.7983ZM19.9999 23.2661C18.1854 23.2661 16.6935 21.7741 16.6935 19.9596C16.6935 18.1451 18.1854 16.6532 19.9999 16.6532C21.8144 16.6532 23.3064 18.1451 23.3064 19.9596C23.3064 21.7741 21.8144 23.2661 19.9999 23.2661Z" fill="black"/>
<path d="M25.363 15.8468C26.0088 15.8468 26.5323 15.3232 26.5323 14.6774C26.5323 14.0316 26.0088 13.5081 25.363 13.5081C24.7171 13.5081 24.1936 14.0316 24.1936 14.6774C24.1936 15.3232 24.7171 15.8468 25.363 15.8468Z" fill="black"/>
<path d="M28.3871 11.6532C27.3387 10.5645 25.8468 10 24.1532 10H15.8468C12.3387 10 10 12.3387 10 15.8468V24.1129C10 25.8468 10.5645 27.3387 11.6935 28.4274C12.7823 29.4758 14.2339 30 15.8871 30H24.1129C25.8468 30 27.2984 29.4355 28.3468 28.4274C29.4355 27.379 30 25.8871 30 24.1532V15.8468C30 14.1532 29.4355 12.7016 28.3871 11.6532ZM28.2258 24.1532C28.2258 25.4032 27.7823 26.4113 27.0564 27.0968C26.3306 27.7823 25.3226 28.1452 24.1129 28.1452H15.8871C14.6774 28.1452 13.6694 27.7823 12.9435 27.0968C12.2177 26.371 11.8548 25.3629 11.8548 24.1129V15.8468C11.8548 14.6371 12.2177 13.629 12.9435 12.9032C13.629 12.2177 14.6774 11.8548 15.8871 11.8548H24.1935C25.4032 11.8548 26.4113 12.2177 27.1371 12.9435C27.8226 13.6694 28.2258 14.6774 28.2258 15.8468V24.1532Z" fill="black"/>
</svg>
