<svg width="17" height="17" viewBox="0 0 17 17" fill="none" xmlns="http://www.w3.org/2000/svg">
<g clip-path="url(#clip0_2661_577)">
<path d="M8.03834 1.78257C8.20914 1.37193 8.79086 1.37193 8.96166 1.78257L10.4987 5.47817C10.5707 5.65128 10.7336 5.76957 10.9204 5.78455L14.9102 6.1044C15.3535 6.13995 15.5332 6.6932 15.1955 6.98253L12.1557 9.58639C12.0133 9.70837 11.9512 9.89975 11.9947 10.0821L12.9234 13.9754C13.0265 14.408 12.5559 14.7499 12.1764 14.5181L8.76063 12.4318C8.60062 12.3341 8.39938 12.3341 8.23937 12.4318L4.82363 14.5181C4.44408 14.7499 3.97345 14.408 4.07665 13.9754L5.00534 10.0821C5.04884 9.89975 4.98665 9.70837 4.84426 9.58639L1.80453 6.98253C1.46676 6.6932 1.64652 6.13995 2.08985 6.1044L6.07955 5.78455C6.26645 5.76957 6.42925 5.65128 6.50126 5.47817L8.03834 1.78257Z" fill="#F5AF00"/>
</g>
<defs>
<clipPath id="clip0_2661_577">
<rect width="16" height="16" fill="white" transform="translate(0.5 0.272705)"/>
</clipPath>
</defs>
</svg>
