<svg width="126" height="94" viewBox="0 0 126 94" fill="none" xmlns="http://www.w3.org/2000/svg">
<path d="M37.6105 9.37256H48.233V11.3823H44.0505V22.7116H41.758V11.3823H37.593L37.6105 9.37256ZM47.778 13.0541H49.738V14.9216H49.773C49.843 14.6548 49.9655 14.4058 50.1405 14.1568C50.3155 13.9078 50.5255 13.6766 50.788 13.481C51.033 13.2675 51.313 13.1075 51.628 12.983C51.9255 12.8585 52.2405 12.7873 52.5555 12.7873C52.8005 12.7873 52.9755 12.8051 53.063 12.8051C53.1505 12.8229 53.2555 12.8407 53.343 12.8407V14.886C53.203 14.8505 53.0455 14.8327 52.888 14.8149C52.7305 14.7971 52.5905 14.7793 52.433 14.7793C52.083 14.7793 51.7505 14.8504 51.4355 14.9927C51.1205 15.135 50.858 15.3484 50.613 15.6152C50.3855 15.8998 50.193 16.2377 50.053 16.6468C49.913 17.0558 49.843 17.536 49.843 18.0696V22.6582H47.743L47.778 13.0541ZM62.968 22.7116H60.903V21.3599H60.868C60.6055 21.8579 60.2205 22.2314 59.713 22.5337C59.2055 22.8361 58.6805 22.9784 58.1555 22.9784C56.913 22.9784 56.003 22.676 55.443 22.0357C54.883 21.4132 54.603 20.4528 54.603 19.1901V13.0541H56.703V18.9767C56.703 19.8304 56.8605 20.4351 57.193 20.773C57.508 21.1287 57.963 21.3065 58.5405 21.3065C58.978 21.3065 59.3455 21.2354 59.643 21.0931C59.9405 20.9508 60.1855 20.773 60.3605 20.5418C60.553 20.3106 60.6755 20.026 60.763 19.7059C60.8505 19.3857 60.8855 19.03 60.8855 18.6565V13.0541H62.9855V22.7116H62.968ZM66.538 19.6169C66.608 20.2394 66.8355 20.6663 67.238 20.933C67.6405 21.182 68.1305 21.3065 68.6905 21.3065C68.883 21.3065 69.1105 21.2888 69.3555 21.2532C69.6005 21.2176 69.8455 21.1643 70.0555 21.0753C70.283 20.9864 70.458 20.8619 70.598 20.684C70.738 20.5062 70.808 20.2928 70.7905 20.026C70.773 19.7592 70.6855 19.528 70.493 19.3501C70.3005 19.1723 70.073 19.0478 69.793 18.9233C69.513 18.8166 69.1805 18.7277 68.813 18.6565C68.4455 18.5854 68.078 18.4964 67.693 18.4075C67.308 18.3186 66.923 18.2119 66.5555 18.0874C66.188 17.9629 65.873 17.8028 65.5755 17.5716C65.2955 17.3582 65.0505 17.0914 64.893 16.7535C64.718 16.4156 64.6305 16.0243 64.6305 15.5263C64.6305 14.9927 64.753 14.5659 65.0155 14.2102C65.2605 13.8545 65.593 13.5699 65.978 13.3565C66.363 13.1431 66.8005 12.983 67.273 12.8941C67.7455 12.8051 68.2005 12.7696 68.6205 12.7696C69.1105 12.7696 69.583 12.8229 70.0205 12.9296C70.458 13.0363 70.878 13.1964 71.228 13.4454C71.5955 13.6766 71.893 13.9967 72.1205 14.3702C72.3655 14.7437 72.5055 15.2062 72.5755 15.7397H70.388C70.283 15.2239 70.0555 14.886 69.7055 14.7082C69.338 14.5303 68.9355 14.4414 68.463 14.4414C68.323 14.4414 68.1305 14.4592 67.938 14.477C67.728 14.5125 67.553 14.5481 67.3605 14.6192C67.1855 14.6904 67.028 14.7971 66.9055 14.9216C66.783 15.0461 66.713 15.2239 66.713 15.4374C66.713 15.7041 66.8005 15.8998 66.9755 16.0599C67.1505 16.2199 67.378 16.3444 67.6755 16.4689C67.9555 16.5756 68.288 16.6646 68.6555 16.7357C69.023 16.8068 69.408 16.8958 69.793 16.9847C70.178 17.0736 70.5455 17.1803 70.913 17.3048C71.2805 17.4293 71.613 17.5894 71.893 17.8206C72.173 18.034 72.418 18.3008 72.593 18.6209C72.768 18.9411 72.8555 19.3501 72.8555 19.8126C72.8555 20.3817 72.733 20.8619 72.4705 21.271C72.208 21.6622 71.8755 22.0002 71.473 22.2492C71.0705 22.4982 70.598 22.676 70.108 22.8005C69.6005 22.9072 69.1105 22.9784 68.6205 22.9784C68.0255 22.9784 67.4655 22.9072 66.958 22.7649C66.4505 22.6227 65.9955 22.4092 65.628 22.1425C65.2605 21.8579 64.963 21.52 64.753 21.0931C64.543 20.6841 64.4205 20.1861 64.403 19.5991H66.5205V19.6169H66.538ZM73.4505 13.0541H75.043V10.1373H77.143V13.0363H79.033V14.6192H77.143V19.777C77.143 20.0082 77.1605 20.1861 77.178 20.3639C77.1955 20.524 77.248 20.6663 77.3005 20.773C77.3705 20.8797 77.4755 20.9686 77.598 21.022C77.738 21.0753 77.913 21.1109 78.158 21.1109C78.298 21.1109 78.4555 21.1109 78.5955 21.0931C78.7355 21.0753 78.893 21.0575 79.033 21.022V22.676C78.8055 22.7116 78.578 22.7294 78.3505 22.7472C78.123 22.7827 77.913 22.7827 77.668 22.7827C77.108 22.7827 76.6705 22.7294 76.338 22.6227C76.0055 22.5159 75.743 22.3559 75.5505 22.1602C75.358 21.9468 75.2355 21.6978 75.1655 21.3955C75.0955 21.0931 75.0605 20.7196 75.043 20.3283V14.637H73.4505V13.0186V13.0541ZM80.503 13.0541H82.4805V14.3702H82.5155C82.813 13.8011 83.2155 13.4098 83.7405 13.1608C84.2655 12.9118 84.8255 12.7873 85.4555 12.7873C86.208 12.7873 86.8555 12.9118 87.4155 13.1964C87.9755 13.4632 88.4305 13.8189 88.798 14.2991C89.1655 14.7615 89.4455 15.3129 89.6205 15.9354C89.7955 16.5578 89.9005 17.2337 89.9005 17.9273C89.9005 18.5854 89.813 19.2079 89.6555 19.8126C89.4805 20.4173 89.2355 20.9686 88.903 21.431C88.5705 21.8935 88.1505 22.2669 87.6255 22.5515C87.1005 22.8361 86.5055 22.9784 85.8055 22.9784C85.508 22.9784 85.193 22.9428 84.8955 22.8894C84.598 22.8361 84.3005 22.7472 84.0205 22.6227C83.7405 22.4982 83.478 22.3381 83.2505 22.1425C83.0055 21.9468 82.813 21.7156 82.6555 21.4666H82.6205V26.2864H80.5205V13.0541H80.503ZM87.8355 17.8917C87.8355 17.4649 87.783 17.038 87.6605 16.629C87.5555 16.2199 87.3805 15.8642 87.153 15.5441C86.9255 15.2239 86.6455 14.9749 86.3305 14.7793C85.998 14.5837 85.613 14.4947 85.193 14.4947C84.318 14.4947 83.653 14.7971 83.198 15.4196C82.7605 16.0421 82.533 16.878 82.533 17.9095C82.533 18.4075 82.5855 18.8522 82.708 19.2612C82.8305 19.6703 82.988 20.026 83.233 20.3283C83.4605 20.6307 83.7405 20.8619 84.073 21.0398C84.4055 21.2176 84.773 21.3065 85.2105 21.3065C85.7005 21.3065 86.0855 21.1998 86.418 21.0042C86.7505 20.8085 87.013 20.5418 87.2405 20.2394C87.4505 19.9193 87.608 19.5636 87.6955 19.1545C87.783 18.7277 87.8355 18.3186 87.8355 17.8917ZM91.528 9.37256H93.628V11.3823H91.528V9.37256ZM91.528 13.0541H93.628V22.7116H91.528V13.0541ZM95.5005 9.37256H97.6005V22.7116H95.5005V9.37256ZM104.006 22.9784C103.253 22.9784 102.571 22.8539 101.976 22.5871C101.381 22.3203 100.891 21.9824 100.471 21.5377C100.068 21.0931 99.753 20.5418 99.543 19.9193C99.333 19.2968 99.2105 18.6032 99.2105 17.874C99.2105 17.1448 99.3155 16.4689 99.543 15.8464C99.753 15.2239 100.068 14.6904 100.471 14.228C100.873 13.7833 101.381 13.4276 101.976 13.1786C102.571 12.9296 103.253 12.7873 104.006 12.7873C104.758 12.7873 105.441 12.9118 106.036 13.1786C106.631 13.4276 107.121 13.7833 107.541 14.228C107.943 14.6726 108.258 15.2239 108.468 15.8464C108.678 16.4689 108.801 17.1448 108.801 17.874C108.801 18.6209 108.696 19.2968 108.468 19.9193C108.241 20.5418 107.943 21.0753 107.541 21.5377C107.138 21.9824 106.631 22.3381 106.036 22.5871C105.441 22.8361 104.776 22.9784 104.006 22.9784ZM104.006 21.2888C104.461 21.2888 104.881 21.182 105.213 20.9864C105.563 20.7908 105.826 20.524 106.053 20.2038C106.281 19.8837 106.438 19.5102 106.543 19.1189C106.648 18.7099 106.701 18.3008 106.701 17.874C106.701 17.4649 106.648 17.0558 106.543 16.6468C106.438 16.2377 106.281 15.882 106.053 15.5619C105.826 15.2417 105.546 14.9927 105.213 14.7971C104.863 14.6015 104.461 14.4947 104.006 14.4947C103.551 14.4947 103.131 14.6015 102.798 14.7971C102.448 14.9927 102.186 15.2595 101.958 15.5619C101.731 15.882 101.573 16.2377 101.468 16.6468C101.363 17.0558 101.311 17.4649 101.311 17.874C101.311 18.3008 101.363 18.7099 101.468 19.1189C101.573 19.528 101.731 19.8837 101.958 20.2038C102.186 20.524 102.466 20.7908 102.798 20.9864C103.148 21.1998 103.551 21.2888 104.006 21.2888ZM109.431 13.0541H111.023V10.1373H113.123V13.0363H115.013V14.6192H113.123V19.777C113.123 20.0082 113.141 20.1861 113.158 20.3639C113.176 20.524 113.228 20.6663 113.281 20.773C113.351 20.8797 113.456 20.9686 113.578 21.022C113.718 21.0753 113.893 21.1109 114.138 21.1109C114.278 21.1109 114.436 21.1109 114.576 21.0931C114.716 21.0753 114.873 21.0575 115.013 21.022V22.676C114.786 22.7116 114.558 22.7294 114.331 22.7472C114.103 22.7827 113.893 22.7827 113.648 22.7827C113.088 22.7827 112.651 22.7294 112.318 22.6227C111.986 22.5159 111.723 22.3559 111.531 22.1602C111.338 21.9468 111.216 21.6978 111.146 21.3955C111.076 21.0931 111.041 20.7196 111.023 20.3283V14.637H109.431V13.0186V13.0541Z" fill="black"/>
<path d="M35.1604 9.37259H25.5529L22.5954 0.088623L19.6204 9.37259L10.0129 9.3548L17.7829 15.0995L14.8079 24.3834L22.5779 18.6388L30.3479 24.3834L27.3904 15.0995L35.1604 9.37259Z" fill="#00B67A"/>
<path d="M28.0555 17.1982L27.3905 15.0995L22.5955 18.6388L28.0555 17.1982Z" fill="#005128"/>
<path d="M34.3052 69.1475H32.9372V70.9115H31.0412V69.1475H26.5172V67.8395L30.4772 62.5115H32.5172L28.8452 67.5635H31.1012V65.9915H32.9372V67.5635H34.3052V69.1475ZM36.465 71.0075C36.137 71.0075 35.861 70.8955 35.637 70.6715C35.413 70.4475 35.301 70.1675 35.301 69.8315C35.301 69.4875 35.413 69.2115 35.637 69.0035C35.861 68.7875 36.137 68.6795 36.465 68.6795C36.793 68.6795 37.069 68.7875 37.293 69.0035C37.517 69.2115 37.629 69.4875 37.629 69.8315C37.629 70.1675 37.517 70.4475 37.293 70.6715C37.069 70.8955 36.793 71.0075 36.465 71.0075ZM41.6936 62.3675C42.8696 62.3675 43.7896 62.7275 44.4536 63.4475C45.1176 64.1595 45.4496 65.1875 45.4496 66.5315C45.4496 67.4835 45.2696 68.2995 44.9096 68.9795C44.5576 69.6595 44.0576 70.1755 43.4096 70.5275C42.7616 70.8795 42.0136 71.0555 41.1656 71.0555C40.7176 71.0555 40.2896 71.0075 39.8816 70.9115C39.4736 70.8075 39.1256 70.6635 38.8376 70.4795L39.5576 69.0515C39.9656 69.3315 40.4896 69.4715 41.1296 69.4715C41.8416 69.4715 42.4056 69.2635 42.8216 68.8475C43.2376 68.4235 43.4616 67.8155 43.4936 67.0235C42.9896 67.5275 42.2936 67.7795 41.4056 67.7795C40.8696 67.7795 40.3816 67.6715 39.9416 67.4555C39.5016 67.2395 39.1536 66.9355 38.8976 66.5435C38.6416 66.1435 38.5136 65.6835 38.5136 65.1635C38.5136 64.6035 38.6536 64.1115 38.9336 63.6875C39.2136 63.2635 39.5936 62.9395 40.0736 62.7155C40.5616 62.4835 41.1016 62.3675 41.6936 62.3675ZM41.8376 66.3275C42.2616 66.3275 42.6056 66.2115 42.8696 65.9795C43.1416 65.7395 43.2776 65.4355 43.2776 65.0675C43.2776 64.6995 43.1456 64.3995 42.8816 64.1675C42.6256 63.9355 42.2696 63.8195 41.8136 63.8195C41.3976 63.8195 41.0576 63.9315 40.7936 64.1555C40.5376 64.3795 40.4096 64.6835 40.4096 65.0675C40.4096 65.4515 40.5376 65.7595 40.7936 65.9915C41.0576 66.2155 41.4056 66.3275 41.8376 66.3275ZM52.1749 73.2395C51.2869 71.7875 50.7829 69.8315 50.7829 67.6235C50.7829 65.4155 51.2869 63.4355 52.1749 62.0075H52.9909C52.0429 63.6515 51.6229 65.4875 51.6229 67.6235C51.6229 69.7595 52.0429 71.5955 52.9909 73.2395H52.1749ZM53.9493 62.5115H56.7933V70.9115H55.9293V63.2795H53.9493V62.5115ZM61.2492 65.9555C63.7812 65.9555 64.7412 66.9515 64.7412 68.4395C64.7412 69.8675 63.7452 70.9835 61.6932 70.9835C60.4812 70.9835 59.3292 70.5635 58.6812 69.9035L59.1012 69.2195C59.6412 69.7835 60.6012 70.1915 61.6812 70.1915C63.1092 70.1915 63.8652 69.4955 63.8652 68.4755C63.8652 67.3955 63.1932 66.7235 61.0572 66.7235H59.2692L59.7012 62.5115H64.2972V63.2795H60.4572L60.1692 65.9555H61.2492ZM66.7381 69.6635C67.1101 69.6635 67.3741 69.9515 67.3741 70.3115C67.3741 70.5155 67.3261 70.6715 67.2061 71.0075L66.7021 72.6635H66.1261L66.5341 70.9235C66.2821 70.8515 66.1021 70.6235 66.1021 70.3115C66.1021 69.9395 66.3781 69.6635 66.7381 69.6635ZM71.0691 65.9555C73.6011 65.9555 74.5611 66.9515 74.5611 68.4395C74.5611 69.8675 73.5651 70.9835 71.5131 70.9835C70.3011 70.9835 69.1491 70.5635 68.5011 69.9035L68.9211 69.2195C69.4611 69.7835 70.4211 70.1915 71.5011 70.1915C72.9291 70.1915 73.6851 69.4955 73.6851 68.4755C73.6851 67.3955 73.0131 66.7235 70.8771 66.7235H69.0891L69.5211 62.5115H74.1171V63.2795H70.2771L69.9891 65.9555H71.0691ZM79.246 70.9835C77.302 70.9835 75.898 69.3875 75.898 66.7115C75.898 64.0355 77.302 62.4395 79.246 62.4395C81.19 62.4395 82.606 64.0355 82.606 66.7115C82.606 69.3875 81.19 70.9835 79.246 70.9835ZM79.246 70.1915C80.71 70.1915 81.718 68.9555 81.718 66.7115C81.718 64.4675 80.71 63.2315 79.246 63.2315C77.782 63.2315 76.774 64.4675 76.774 66.7115C76.774 68.9555 77.782 70.1915 79.246 70.1915ZM87.4313 70.9835C85.4873 70.9835 84.0833 69.3875 84.0833 66.7115C84.0833 64.0355 85.4873 62.4395 87.4313 62.4395C89.3753 62.4395 90.7913 64.0355 90.7913 66.7115C90.7913 69.3875 89.3753 70.9835 87.4313 70.9835ZM87.4313 70.1915C88.8953 70.1915 89.9033 68.9555 89.9033 66.7115C89.9033 64.4675 88.8953 63.2315 87.4313 63.2315C85.9673 63.2315 84.9593 64.4675 84.9593 66.7115C84.9593 68.9555 85.9673 70.1915 87.4313 70.1915ZM97.7983 66.3635V67.0715H95.5663V69.2555H94.8103V67.0715H92.5783V66.3635H94.8103V64.1675H95.5663V66.3635H97.7983ZM39.2082 83.8355C39.6042 82.9955 40.4082 82.5515 41.5722 82.5515V83.3795C41.5002 83.3795 41.4282 83.3675 41.3682 83.3675C40.0482 83.3675 39.2442 84.2075 39.2442 85.6955V88.9115H38.3922V82.5995H39.2082V83.8355ZM48.8043 85.7555C48.8043 85.8275 48.7923 85.9235 48.7923 86.0195H43.5123C43.6083 87.3395 44.6163 88.2155 45.9963 88.2155C46.7643 88.2155 47.4483 87.9395 47.9283 87.3875L48.4083 87.9395C47.8443 88.6115 46.9683 88.9715 45.9723 88.9715C44.0043 88.9715 42.6603 87.6275 42.6603 85.7555C42.6603 83.8835 43.9683 82.5515 45.7443 82.5515C47.5203 82.5515 48.8043 83.8595 48.8043 85.7555ZM45.7443 83.2835C44.5203 83.2835 43.6203 84.1475 43.5123 85.3835H47.9883C47.8803 84.1475 46.9803 83.2835 45.7443 83.2835ZM55.1253 82.5995H55.9653L53.1573 88.9115H52.2813L49.4853 82.5995H50.3733L52.7373 87.9755L55.1253 82.5995ZM57.8372 81.2195C57.4892 81.2195 57.2132 80.9435 57.2132 80.6075C57.2132 80.2835 57.4892 80.0075 57.8372 80.0075C58.1852 80.0075 58.4612 80.2715 58.4612 80.5955C58.4612 80.9435 58.1972 81.2195 57.8372 81.2195ZM57.4052 88.9115V82.5995H58.2572V88.9115H57.4052ZM66.3758 85.7555C66.3758 85.8275 66.3638 85.9235 66.3638 86.0195H61.0838C61.1798 87.3395 62.1878 88.2155 63.5678 88.2155C64.3358 88.2155 65.0198 87.9395 65.4998 87.3875L65.9798 87.9395C65.4158 88.6115 64.5398 88.9715 63.5438 88.9715C61.5758 88.9715 60.2318 87.6275 60.2318 85.7555C60.2318 83.8835 61.5398 82.5515 63.3158 82.5515C65.0918 82.5515 66.3758 83.8595 66.3758 85.7555ZM63.3158 83.2835C62.0918 83.2835 61.1918 84.1475 61.0838 85.3835H65.5598C65.4518 84.1475 64.5518 83.2835 63.3158 83.2835ZM76.7168 82.5995H77.4968L75.1088 88.9115H74.3048L72.3128 83.7395L70.3208 88.9115H69.5168L67.1408 82.5995H67.9568L69.9368 87.9635L71.9648 82.5995H72.6968L74.7128 87.9635L76.7168 82.5995ZM80.6414 88.9715C79.5974 88.9715 78.5894 88.6355 78.0734 88.1915L78.4574 87.5195C78.9614 87.9155 79.8134 88.2275 80.7014 88.2275C81.9014 88.2275 82.3934 87.8195 82.3934 87.1955C82.3934 85.5515 78.3014 86.8475 78.3014 84.3515C78.3014 83.3195 79.1894 82.5515 80.7974 82.5515C81.6134 82.5515 82.5014 82.7795 83.0294 83.1395L82.6574 83.8235C82.1054 83.4395 81.4454 83.2835 80.7974 83.2835C79.6574 83.2835 79.1534 83.7275 79.1534 84.3275C79.1534 86.0315 83.2454 84.7475 83.2454 87.1715C83.2454 88.2635 82.2854 88.9715 80.6414 88.9715ZM85.1685 91.2395H84.3525C85.3125 89.5955 85.7325 87.7595 85.7325 85.6235C85.7325 83.4875 85.3125 81.6515 84.3525 80.0075H85.1685C86.0685 81.4355 86.5725 83.4155 86.5725 85.6235C86.5725 87.8315 86.0685 89.7875 85.1685 91.2395Z" fill="#0C355C"/>
<path d="M8.01294 36.2865H28.6379V56.9115H8.01294V36.2865ZM30.3567 36.2865H50.9817V56.9115H30.3567V36.2865ZM52.7004 36.2865H73.3254V56.9115H52.7004V36.2865ZM75.0442 36.2865H95.6692V56.9115H75.0442V36.2865ZM97.3879 36.2865H118.013V56.9115H97.3879V36.2865Z" fill="#00B67A"/>
<path d="M18.3254 50.1869L21.4622 49.392L22.7727 53.431L18.3254 50.1869ZM25.5442 44.9662H20.0227L18.3254 39.767L16.6282 44.9662H11.1067L15.5754 48.1888L13.8782 53.3881L18.3469 50.1654L21.0969 48.1888L25.5442 44.9662ZM40.6692 50.1869L43.8059 49.392L45.1165 53.431L40.6692 50.1869ZM47.8879 44.9662H42.3665L40.6692 39.767L38.9719 44.9662H33.4504L37.9192 48.1888L36.2219 53.3881L40.6907 50.1654L43.4407 48.1888L47.8879 44.9662ZM63.0129 50.1869L66.1497 49.392L67.4602 53.431L63.0129 50.1869ZM70.2317 44.9662H64.7102L63.0129 39.767L61.3157 44.9662H55.7942L60.2629 48.1888L58.5657 53.3881L63.0344 50.1654L65.7844 48.1888L70.2317 44.9662ZM85.3567 50.1869L88.4934 49.392L89.804 53.431L85.3567 50.1869ZM92.5754 44.9662H87.054L85.3567 39.767L83.6594 44.9662H78.1379L82.6067 48.1888L80.9094 53.3881L85.3782 50.1654L88.1282 48.1888L92.5754 44.9662ZM107.7 50.1869L110.837 49.392L112.148 53.431L107.7 50.1869ZM114.919 44.9662H109.398L107.7 39.767L106.003 44.9662H100.482L104.95 48.1888L103.253 53.3881L107.722 50.1654L110.472 48.1888L114.919 44.9662Z" fill="white"/>
</svg>
