<svg width="301" height="30" viewBox="0 0 301 30" fill="none" xmlns="http://www.w3.org/2000/svg">
<rect x="0.5" width="300" height="30" rx="15" fill="#E7EBF0"/>
<g clip-path="url(#clip0_2516_2668)">
<g clip-path="url(#clip1_2516_2668)">
<path d="M24.0383 8.50999C24.2091 8.09934 24.7909 8.09934 24.9617 8.50999L26.4987 12.2056C26.5707 12.3787 26.7336 12.497 26.9204 12.512L30.9102 12.8318C31.3535 12.8674 31.5332 13.4206 31.1955 13.71L28.1557 16.3138C28.0133 16.4358 27.9512 16.6272 27.9947 16.8095L28.9234 20.7028C29.0265 21.1354 28.5559 21.4774 28.1764 21.2455L24.7606 19.1592C24.6006 19.0615 24.3994 19.0615 24.2394 19.1592L20.8236 21.2455C20.4441 21.4774 19.9735 21.1354 20.0766 20.7028L21.0053 16.8095C21.0488 16.6272 20.9867 16.4358 20.8443 16.3138L17.8045 13.71C17.4668 13.4206 17.6465 12.8674 18.0898 12.8318L22.0796 12.512C22.2664 12.497 22.4293 12.3787 22.5013 12.2056L24.0383 8.50999Z" fill="#F16E00"/>
</g>
<g clip-path="url(#clip2_2516_2668)">
<path d="M42.0383 8.50999C42.2091 8.09934 42.7909 8.09934 42.9617 8.50999L44.4987 12.2056C44.5707 12.3787 44.7336 12.497 44.9204 12.512L48.9102 12.8318C49.3535 12.8674 49.5332 13.4206 49.1955 13.71L46.1557 16.3138C46.0133 16.4358 45.9512 16.6272 45.9947 16.8095L46.9234 20.7028C47.0265 21.1354 46.5559 21.4774 46.1764 21.2455L42.7606 19.1592C42.6006 19.0615 42.3994 19.0615 42.2394 19.1592L38.8236 21.2455C38.4441 21.4774 37.9735 21.1354 38.0766 20.7028L39.0053 16.8095C39.0488 16.6272 38.9867 16.4358 38.8443 16.3138L35.8045 13.71C35.4668 13.4206 35.6465 12.8674 36.0898 12.8318L40.0796 12.512C40.2664 12.497 40.4293 12.3787 40.5013 12.2056L42.0383 8.50999Z" fill="#F16E00"/>
</g>
<g clip-path="url(#clip3_2516_2668)">
<path d="M60.0383 8.50999C60.2091 8.09934 60.7909 8.09934 60.9617 8.50999L62.4987 12.2056C62.5707 12.3787 62.7336 12.497 62.9204 12.512L66.9102 12.8318C67.3535 12.8674 67.5332 13.4206 67.1955 13.71L64.1557 16.3138C64.0133 16.4358 63.9512 16.6272 63.9947 16.8095L64.9234 20.7028C65.0265 21.1354 64.5559 21.4774 64.1764 21.2455L60.7606 19.1592C60.6006 19.0615 60.3994 19.0615 60.2394 19.1592L56.8236 21.2455C56.4441 21.4774 55.9735 21.1354 56.0766 20.7028L57.0053 16.8095C57.0488 16.6272 56.9867 16.4358 56.8443 16.3138L53.8045 13.71C53.4668 13.4206 53.6465 12.8674 54.0898 12.8318L58.0796 12.512C58.2664 12.497 58.4293 12.3787 58.5013 12.2056L60.0383 8.50999Z" fill="#F16E00"/>
</g>
<g clip-path="url(#clip4_2516_2668)">
<path d="M78.0383 8.50999C78.2091 8.09934 78.7909 8.09934 78.9617 8.50999L80.4987 12.2056C80.5707 12.3787 80.7336 12.497 80.9204 12.512L84.9102 12.8318C85.3535 12.8674 85.5332 13.4206 85.1955 13.71L82.1557 16.3138C82.0133 16.4358 81.9512 16.6272 81.9947 16.8095L82.9234 20.7028C83.0265 21.1354 82.5559 21.4774 82.1764 21.2455L78.7606 19.1592C78.6006 19.0615 78.3994 19.0615 78.2394 19.1592L74.8236 21.2455C74.4441 21.4774 73.9735 21.1354 74.0766 20.7028L75.0053 16.8095C75.0488 16.6272 74.9867 16.4358 74.8443 16.3138L71.8045 13.71C71.4668 13.4206 71.6465 12.8674 72.0898 12.8318L76.0796 12.512C76.2664 12.497 76.4293 12.3787 76.5013 12.2056L78.0383 8.50999Z" fill="#F16E00"/>
</g>
<g clip-path="url(#clip5_2516_2668)">
<path d="M96.0383 8.50999C96.2091 8.09934 96.7909 8.09934 96.9617 8.50999L98.4987 12.2056C98.5707 12.3787 98.7336 12.497 98.9204 12.512L102.91 12.8318C103.353 12.8674 103.533 13.4206 103.195 13.71L100.156 16.3138C100.013 16.4358 99.9512 16.6272 99.9947 16.8095L100.923 20.7028C101.027 21.1354 100.556 21.4774 100.176 21.2455L96.7606 19.1592C96.6006 19.0615 96.3994 19.0615 96.2394 19.1592L92.8236 21.2455C92.4441 21.4774 91.9735 21.1354 92.0766 20.7028L93.0053 16.8095C93.0488 16.6272 92.9867 16.4358 92.8443 16.3138L89.8045 13.71C89.4668 13.4206 89.6465 12.8674 90.0898 12.8318L94.0796 12.512C94.2664 12.497 94.4293 12.3787 94.5013 12.2056L96.0383 8.50999Z" fill="#F16E00"/>
</g>
</g>
<path d="M114.626 10.2H117.944V20H116.936V11.096H114.626V10.2ZM124.473 20.084C122.205 20.084 120.567 18.222 120.567 15.1C120.567 11.978 122.205 10.116 124.473 10.116C126.741 10.116 128.393 11.978 128.393 15.1C128.393 18.222 126.741 20.084 124.473 20.084ZM124.473 19.16C126.181 19.16 127.357 17.718 127.357 15.1C127.357 12.482 126.181 11.04 124.473 11.04C122.765 11.04 121.589 12.482 121.589 15.1C121.589 17.718 122.765 19.16 124.473 19.16ZM130.736 18.544C131.17 18.544 131.478 18.88 131.478 19.3C131.478 19.538 131.422 19.72 131.282 20.112L130.694 22.044H130.022L130.498 20.014C130.204 19.93 129.994 19.664 129.994 19.3C129.994 18.866 130.316 18.544 130.736 18.544ZM136.968 20.084C134.7 20.084 133.062 18.222 133.062 15.1C133.062 11.978 134.7 10.116 136.968 10.116C139.236 10.116 140.888 11.978 140.888 15.1C140.888 18.222 139.236 20.084 136.968 20.084ZM136.968 19.16C138.676 19.16 139.852 17.718 139.852 15.1C139.852 12.482 138.676 11.04 136.968 11.04C135.26 11.04 134.084 12.482 134.084 15.1C134.084 17.718 135.26 19.16 136.968 19.16ZM146.518 20.084C144.25 20.084 142.612 18.222 142.612 15.1C142.612 11.978 144.25 10.116 146.518 10.116C148.786 10.116 150.438 11.978 150.438 15.1C150.438 18.222 148.786 20.084 146.518 20.084ZM146.518 19.16C148.226 19.16 149.402 17.718 149.402 15.1C149.402 12.482 148.226 11.04 146.518 11.04C144.81 11.04 143.634 12.482 143.634 15.1C143.634 17.718 144.81 19.16 146.518 19.16ZM156.067 20.084C153.799 20.084 152.161 18.222 152.161 15.1C152.161 11.978 153.799 10.116 156.067 10.116C158.335 10.116 159.987 11.978 159.987 15.1C159.987 18.222 158.335 20.084 156.067 20.084ZM156.067 19.16C157.775 19.16 158.951 17.718 158.951 15.1C158.951 12.482 157.775 11.04 156.067 11.04C154.359 11.04 153.183 12.482 153.183 15.1C153.183 17.718 154.359 19.16 156.067 19.16ZM168.162 14.694V15.52H165.558V18.068H164.676V15.52H162.072V14.694H164.676V12.132H165.558V14.694H168.162ZM182.063 10.2H183.113L178.773 20H177.751L173.411 10.2H174.531L178.283 18.712L182.063 10.2ZM190.471 16.318C190.471 16.402 190.457 16.514 190.457 16.626H184.297C184.409 18.166 185.585 19.188 187.195 19.188C188.091 19.188 188.889 18.866 189.449 18.222L190.009 18.866C189.351 19.65 188.329 20.07 187.167 20.07C184.871 20.07 183.303 18.502 183.303 16.318C183.303 14.134 184.829 12.58 186.901 12.58C188.973 12.58 190.471 14.106 190.471 16.318ZM186.901 13.434C185.473 13.434 184.423 14.442 184.297 15.884H189.519C189.393 14.442 188.343 13.434 186.901 13.434ZM193.726 14.078C194.188 13.098 195.126 12.58 196.484 12.58V13.546C196.4 13.546 196.316 13.532 196.246 13.532C194.706 13.532 193.768 14.512 193.768 16.248V20H192.774V12.636H193.726V14.078ZM199.068 11.026C198.662 11.026 198.34 10.704 198.34 10.312C198.34 9.934 198.662 9.612 199.068 9.612C199.474 9.612 199.796 9.92 199.796 10.298C199.796 10.704 199.488 11.026 199.068 11.026ZM198.564 20V12.636H199.558V20H198.564ZM202.771 11.726C202.771 10.41 203.555 9.542 204.997 9.542C205.543 9.542 206.103 9.696 206.467 10.004L206.131 10.746C205.851 10.508 205.459 10.382 205.039 10.382C204.185 10.382 203.737 10.858 203.737 11.768V12.636H206.005V13.476H203.765V20H202.771V13.476H201.455V12.636H202.771V11.726ZM208.973 9.612C209.379 9.612 209.701 9.92 209.701 10.298C209.701 10.704 209.393 11.026 208.973 11.026C208.567 11.026 208.245 10.704 208.245 10.312C208.245 9.934 208.567 9.612 208.973 9.612ZM208.469 20V12.636H209.463V20H208.469ZM218.948 16.318C218.948 16.402 218.934 16.514 218.934 16.626H212.774C212.886 18.166 214.062 19.188 215.672 19.188C216.568 19.188 217.366 18.866 217.926 18.222L218.486 18.866C217.828 19.65 216.806 20.07 215.644 20.07C213.348 20.07 211.78 18.502 211.78 16.318C211.78 14.134 213.306 12.58 215.378 12.58C217.45 12.58 218.948 14.106 218.948 16.318ZM215.378 13.434C213.95 13.434 212.9 14.442 212.774 15.884H217.996C217.87 14.442 216.82 13.434 215.378 13.434ZM226.977 9.612H227.971V20H227.019V18.544C226.417 19.538 225.395 20.07 224.177 20.07C222.077 20.07 220.509 18.544 220.509 16.318C220.509 14.092 222.077 12.58 224.177 12.58C225.353 12.58 226.361 13.084 226.977 14.036V9.612ZM224.261 19.188C225.815 19.188 226.991 18.04 226.991 16.318C226.991 14.596 225.815 13.448 224.261 13.448C222.693 13.448 221.517 14.596 221.517 16.318C221.517 18.04 222.693 19.188 224.261 19.188ZM243 20H241.866L239.626 16.85C239.374 16.878 239.122 16.892 238.842 16.892H236.21V20H235.174V10.2H238.842C241.334 10.2 242.846 11.46 242.846 13.56C242.846 15.1 242.034 16.178 240.606 16.64L243 20ZM238.814 16.01C240.774 16.01 241.81 15.1 241.81 13.56C241.81 11.992 240.774 11.096 238.814 11.096H236.21V16.01H238.814ZM251.787 16.318C251.787 16.402 251.773 16.514 251.773 16.626H245.613C245.725 18.166 246.901 19.188 248.511 19.188C249.407 19.188 250.205 18.866 250.765 18.222L251.325 18.866C250.667 19.65 249.645 20.07 248.483 20.07C246.187 20.07 244.619 18.502 244.619 16.318C244.619 14.134 246.145 12.58 248.217 12.58C250.289 12.58 251.787 14.106 251.787 16.318ZM248.217 13.434C246.789 13.434 245.739 14.442 245.613 15.884H250.835C250.709 14.442 249.659 13.434 248.217 13.434ZM259.161 12.636H260.141L256.865 20H255.843L252.581 12.636H253.617L256.375 18.908L259.161 12.636ZM262.325 11.026C261.919 11.026 261.597 10.704 261.597 10.312C261.597 9.934 261.919 9.612 262.325 9.612C262.731 9.612 263.053 9.92 263.053 10.298C263.053 10.704 262.745 11.026 262.325 11.026ZM261.821 20V12.636H262.815V20H261.821ZM272.287 16.318C272.287 16.402 272.273 16.514 272.273 16.626H266.113C266.225 18.166 267.401 19.188 269.011 19.188C269.907 19.188 270.705 18.866 271.265 18.222L271.825 18.866C271.167 19.65 270.145 20.07 268.983 20.07C266.687 20.07 265.119 18.502 265.119 16.318C265.119 14.134 266.645 12.58 268.717 12.58C270.789 12.58 272.287 14.106 272.287 16.318ZM268.717 13.434C267.289 13.434 266.239 14.442 266.113 15.884H271.335C271.209 14.442 270.159 13.434 268.717 13.434ZM284.352 12.636H285.262L282.476 20H281.538L279.214 13.966L276.89 20H275.952L273.18 12.636H274.132L276.442 18.894L278.808 12.636H279.662L282.014 18.894L284.352 12.636ZM288.93 20.07C287.712 20.07 286.536 19.678 285.934 19.16L286.382 18.376C286.97 18.838 287.964 19.202 289 19.202C290.4 19.202 290.974 18.726 290.974 17.998C290.974 16.08 286.2 17.592 286.2 14.68C286.2 13.476 287.236 12.58 289.112 12.58C290.064 12.58 291.1 12.846 291.716 13.266L291.282 14.064C290.638 13.616 289.868 13.434 289.112 13.434C287.782 13.434 287.194 13.952 287.194 14.652C287.194 16.64 291.968 15.142 291.968 17.97C291.968 19.244 290.848 20.07 288.93 20.07Z" fill="#0D3B66"/>
<defs>
<clipPath id="clip0_2516_2668">
<rect width="88" height="16" fill="white" transform="translate(16.5 7)"/>
</clipPath>
<clipPath id="clip1_2516_2668">
<rect width="16" height="16" fill="white" transform="translate(16.5 7)"/>
</clipPath>
<clipPath id="clip2_2516_2668">
<rect width="16" height="16" fill="white" transform="translate(34.5 7)"/>
</clipPath>
<clipPath id="clip3_2516_2668">
<rect width="16" height="16" fill="white" transform="translate(52.5 7)"/>
</clipPath>
<clipPath id="clip4_2516_2668">
<rect width="16" height="16" fill="white" transform="translate(70.5 7)"/>
</clipPath>
<clipPath id="clip5_2516_2668">
<rect width="16" height="16" fill="white" transform="translate(88.5 7)"/>
</clipPath>
</defs>
</svg>
